<svg width="16" height="15" viewBox="0 0 16 15" fill="none" xmlns="http://www.w3.org/2000/svg">
<path d="M10.9999 4.64269C10.9999 4.56421 10.9377 4.5 10.8615 4.5L9.71966 4.50535L7.99994 6.61891L6.28195 4.50713L5.13835 4.50178C5.06222 4.50178 4.99994 4.56421 4.99994 4.64447C4.99994 4.67836 5.01205 4.71046 5.03281 4.73722L7.28368 7.50178L5.03281 10.2646C5.0119 10.2907 5.00031 10.3234 4.99994 10.3573C4.99994 10.4358 5.06222 10.5 5.13835 10.5L6.28195 10.4946L7.99994 8.38109L9.71793 10.4929L10.8598 10.4982C10.9359 10.4982 10.9982 10.4358 10.9982 10.3555C10.9982 10.3216 10.9861 10.2895 10.9653 10.2628L8.71793 7.5L10.9688 4.73543C10.9896 4.71046 10.9999 4.67658 10.9999 4.64269Z" fill="#FF3434"/>
<path d="M7.99998 14.1667C11.6819 14.1667 14.6666 11.1819 14.6666 7.50004C14.6666 3.81814 11.6819 0.833374 7.99998 0.833374C4.31808 0.833374 1.33331 3.81814 1.33331 7.50004C1.33331 11.1819 4.31808 14.1667 7.99998 14.1667Z" stroke="#FF3434" stroke-width="1.33333"/>
</svg>
