<svg width="60" height="48" viewBox="0 0 60 48" fill="none" xmlns="http://www.w3.org/2000/svg">
<path d="M29.778 47.0006C26.6461 47.0013 23.6115 45.913 21.1938 43.9222C18.7761 41.9314 17.1258 39.1619 16.5255 36.0881C16.4765 35.7656 16.4983 35.4364 16.5892 35.1231C16.6802 34.8099 16.8381 34.5202 17.0521 34.2741C17.2662 34.0279 17.5311 33.8313 17.8287 33.6977C18.1263 33.5642 18.4493 33.4969 18.7755 33.5006C19.3115 33.4928 19.8327 33.6767 20.2452 34.019C20.6577 34.3614 20.9344 34.8398 21.0255 35.3681C21.4492 37.3907 22.5561 39.2058 24.1601 40.5086C25.7642 41.8115 27.7677 42.5226 29.8342 42.5226C31.9007 42.5226 33.9042 41.8115 35.5083 40.5086C37.1124 39.2058 38.2192 37.3907 38.643 35.3681C38.7341 34.8398 39.0108 34.3614 39.4233 34.019C39.8358 33.6767 40.357 33.4928 40.893 33.5006C41.2191 33.4969 41.5422 33.5642 41.8397 33.6977C42.1373 33.8313 42.4023 34.0279 42.6163 34.2741C42.8303 34.5202 42.9883 34.8099 43.0792 35.1231C43.1702 35.4364 43.1919 35.7656 43.143 36.0881C42.5391 39.181 40.8723 41.9651 38.4313 43.9581C35.9904 45.9512 32.9291 47.0275 29.778 47.0006Z" fill="black"/>
<path d="M1.30432 17.8873C0.460486 19.4325 0.0100087 21.1984 0 23.0004L4.70469 22.9345C4.70469 20.7943 4.61569 19.2568 6.65556 18.0156L27.5217 5.56462C28.2768 5.11646 29.1218 4.88248 29.98 4.88387C30.84 4.88922 31.6851 5.13078 32.4384 5.58658L53.2645 18.0156C54.9885 19.0429 55.9641 21.0214 55.9627 23.0004L60 22.9345C59.99 21.1325 59.5395 19.3666 58.6957 17.8214C57.8518 16.2762 56.6456 15.0084 55.2032 14.1507L34.3371 1.72172C32.9971 0.920264 31.4957 0.500366 29.97 0.500366C28.4443 0.500366 26.9429 0.920264 25.6029 1.72172L4.7968 14.2166C3.35437 15.0743 2.14816 16.342 1.30432 17.8873Z" fill="black"/>
</svg>
