<svg width="48" height="48" viewBox="0 0 48 48" fill="none" xmlns="http://www.w3.org/2000/svg">
<g filter="url(#filter0_i_59_309)">
<rect y="0.000610352" width="48" height="48" rx="24" fill="#24ADF0"/>
<g clip-path="url(#clip0_59_309)">
<path d="M22.278 26.1213L22.0133 29.8439C22.392 29.8439 22.556 29.6813 22.7527 29.4859L24.528 27.7893L28.2067 30.4833C28.8813 30.8593 29.3567 30.6613 29.5387 29.8626L31.9533 18.5479L31.954 18.5473C32.168 17.5499 31.5933 17.1599 30.936 17.4046L16.7427 22.8386C15.774 23.2146 15.7887 23.7546 16.578 23.9993L20.2067 25.1279L28.6353 19.8539C29.032 19.5913 29.3927 19.7366 29.096 19.9993L22.278 26.1213Z" fill="white"/>
</g>
</g>
<defs>
<filter id="filter0_i_59_309" x="0" y="0.000610352" width="48" height="48" filterUnits="userSpaceOnUse" color-interpolation-filters="sRGB">
<feFlood flood-opacity="0" result="BackgroundImageFix"/>
<feBlend mode="normal" in="SourceGraphic" in2="BackgroundImageFix" result="shape"/>
<feColorMatrix in="SourceAlpha" type="matrix" values="0 0 0 0 0 0 0 0 0 0 0 0 0 0 0 0 0 0 127 0" result="hardAlpha"/>
<feOffset/>
<feGaussianBlur stdDeviation="15"/>
<feComposite in2="hardAlpha" operator="arithmetic" k2="-1" k3="1"/>
<feColorMatrix type="matrix" values="0 0 0 0 1 0 0 0 0 1 0 0 0 0 1 0 0 0 0.32 0"/>
<feBlend mode="normal" in2="shape" result="effect1_innerShadow_59_309"/>
</filter>
<clipPath id="clip0_59_309">
<rect width="16" height="16" fill="white" transform="translate(16 16.0006)"/>
</clipPath>
</defs>
</svg>
