<svg width="338" height="54" viewBox="0 0 338 54" fill="none" xmlns="http://www.w3.org/2000/svg">
<path d="M83.144 18.96C83.32 18.96 83.44 19 83.504 19.08C83.568 19.144 83.6 19.264 83.6 19.44V34.368H91.736C92.04 34.368 92.192 34.528 92.192 34.848V35.52C92.192 35.84 92.04 36 91.736 36H82.352C82.176 36 82.048 35.968 81.968 35.904C81.904 35.824 81.872 35.696 81.872 35.52V19.44C81.872 19.264 81.904 19.144 81.968 19.08C82.048 19 82.176 18.96 82.352 18.96H83.144ZM93.8116 25.824C94.7076 24.144 96.3156 23.304 98.6356 23.304C100.412 23.304 101.652 23.736 102.356 24.6C103.076 25.448 103.436 26.6 103.436 28.056V34.344C103.436 34.76 103.372 35.056 103.244 35.232C103.132 35.408 102.908 35.568 102.572 35.712C101.612 36.128 100.284 36.336 98.5876 36.336C96.6036 36.336 95.2436 36.04 94.5076 35.448C93.7716 34.84 93.4036 33.896 93.4036 32.616C93.4036 31.256 93.8036 30.296 94.6036 29.736C95.4196 29.176 96.7796 28.896 98.6836 28.896C99.3396 28.896 100.388 28.976 101.828 29.136V28.032C101.828 26.992 101.588 26.184 101.108 25.608C100.644 25.032 99.8036 24.744 98.5876 24.744C97.0036 24.744 95.8836 25.328 95.2276 26.496C95.0516 26.736 94.8516 26.8 94.6276 26.688L94.0516 26.448C93.7476 26.336 93.6676 26.128 93.8116 25.824ZM101.828 30.456C100.388 30.312 99.2836 30.24 98.5156 30.24C97.2516 30.24 96.3556 30.424 95.8276 30.792C95.3156 31.16 95.0596 31.76 95.0596 32.592C95.0596 33.408 95.2916 34.016 95.7556 34.416C96.2356 34.8 97.1396 34.992 98.4676 34.992C99.6836 34.992 100.652 34.864 101.372 34.608C101.564 34.528 101.684 34.448 101.732 34.368C101.796 34.288 101.828 34.136 101.828 33.912V30.456ZM111.645 24.84C111.645 22.904 112.237 21.384 113.421 20.28C114.621 19.16 116.317 18.6 118.509 18.6C121.917 18.6 124.093 19.936 125.037 22.608C125.229 23.12 125.061 23.472 124.533 23.664L123.213 24.12C122.925 24.216 122.709 24.232 122.565 24.168C122.421 24.088 122.293 23.904 122.181 23.616C121.653 22.144 120.429 21.408 118.509 21.408C117.277 21.408 116.325 21.704 115.653 22.296C114.997 22.872 114.669 23.712 114.669 24.816V30.12C114.669 31.224 114.997 32.072 115.653 32.664C116.325 33.256 117.277 33.552 118.509 33.552C120.413 33.552 121.637 32.808 122.181 31.32C122.309 31.016 122.445 30.832 122.589 30.768C122.733 30.688 122.949 30.704 123.237 30.816L124.533 31.272C125.061 31.464 125.237 31.816 125.061 32.328C124.117 35.016 121.933 36.36 118.509 36.36C116.317 36.36 114.621 35.808 113.421 34.704C112.237 33.584 111.645 32.048 111.645 30.096V24.84ZM126.804 28.008C126.804 26.504 127.284 25.328 128.244 24.48C129.204 23.632 130.564 23.208 132.324 23.208C134.1 23.208 135.468 23.632 136.428 24.48C137.388 25.328 137.868 26.504 137.868 28.008V31.56C137.868 33.064 137.388 34.24 136.428 35.088C135.468 35.936 134.1 36.36 132.324 36.36C130.564 36.36 129.204 35.936 128.244 35.088C127.284 34.24 126.804 33.064 126.804 31.56V28.008ZM135.084 28.008C135.084 27.272 134.844 26.712 134.364 26.328C133.884 25.928 133.204 25.728 132.324 25.728C131.444 25.728 130.764 25.928 130.284 26.328C129.82 26.712 129.588 27.272 129.588 28.008V31.56C129.588 32.28 129.82 32.84 130.284 33.24C130.764 33.64 131.444 33.84 132.324 33.84C133.204 33.84 133.884 33.64 134.364 33.24C134.844 32.84 135.084 32.28 135.084 31.56V28.008ZM139.764 27.072C139.764 25.888 140.18 24.952 141.012 24.264C141.86 23.56 143.092 23.208 144.708 23.208C147.284 23.208 148.996 24.064 149.844 25.776C150.1 26.256 149.972 26.616 149.46 26.856L148.38 27.288C148.108 27.4 147.908 27.44 147.78 27.408C147.668 27.36 147.532 27.208 147.372 26.952C146.908 26.12 146.044 25.704 144.78 25.704C143.276 25.704 142.524 26.136 142.524 27C142.524 27.528 142.732 27.888 143.148 28.08C143.564 28.256 144.292 28.392 145.332 28.488C146.964 28.648 148.188 29 149.004 29.544C149.82 30.072 150.228 31.008 150.228 32.352C150.228 33.568 149.78 34.544 148.884 35.28C147.988 36 146.708 36.36 145.044 36.36C142.228 36.36 140.444 35.392 139.692 33.456C139.5 32.96 139.66 32.624 140.172 32.448L141.252 32.112C141.492 32.016 141.684 32 141.828 32.064C141.988 32.128 142.124 32.296 142.236 32.568C142.604 33.448 143.508 33.888 144.948 33.888C146.644 33.888 147.492 33.416 147.492 32.472C147.492 31.944 147.276 31.584 146.844 31.392C146.428 31.2 145.684 31.048 144.612 30.936C144.052 30.872 143.572 30.808 143.172 30.744C142.788 30.664 142.364 30.536 141.9 30.36C141.436 30.184 141.06 29.968 140.772 29.712C140.484 29.456 140.244 29.104 140.052 28.656C139.86 28.208 139.764 27.68 139.764 27.072ZM160.569 24C161.881 23.472 163.289 23.208 164.793 23.208C167.929 23.208 169.497 24.8 169.497 27.984V35.256C169.497 35.528 169.441 35.72 169.329 35.832C169.233 35.944 169.049 36 168.777 36H167.457C167.185 36 166.993 35.944 166.881 35.832C166.769 35.72 166.713 35.528 166.713 35.256V28.08C166.713 26.528 165.937 25.752 164.385 25.752C163.665 25.752 162.889 25.896 162.057 26.184C162.233 26.648 162.321 27.248 162.321 27.984V35.256C162.321 35.528 162.265 35.72 162.153 35.832C162.041 35.944 161.849 36 161.577 36H160.281C160.009 36 159.817 35.944 159.705 35.832C159.593 35.72 159.537 35.528 159.537 35.256V28.08C159.537 26.528 158.753 25.752 157.185 25.752C156.497 25.752 155.857 25.848 155.265 26.04C155.137 26.088 155.073 26.184 155.073 26.328V35.256C155.073 35.528 155.017 35.72 154.905 35.832C154.809 35.944 154.625 36 154.353 36H153.033C152.761 36 152.569 35.944 152.457 35.832C152.345 35.72 152.289 35.528 152.289 35.256V25.392C152.289 25.008 152.353 24.728 152.481 24.552C152.609 24.36 152.857 24.184 153.225 24.024C154.553 23.48 156.009 23.208 157.593 23.208C158.857 23.208 159.849 23.472 160.569 24ZM171.757 28.392C171.757 26.712 172.229 25.432 173.173 24.552C174.133 23.656 175.517 23.208 177.325 23.208C179.149 23.208 180.525 23.672 181.453 24.6C182.397 25.528 182.869 26.72 182.869 28.176V29.64C182.869 30.328 182.509 30.672 181.789 30.672H174.541V31.56C174.541 32.344 174.773 32.944 175.237 33.36C175.717 33.76 176.397 33.96 177.277 33.96C178.621 33.96 179.565 33.536 180.109 32.688C180.301 32.416 180.477 32.264 180.637 32.232C180.813 32.184 181.045 32.24 181.333 32.4L182.173 32.856C182.717 33.112 182.813 33.512 182.461 34.056C181.517 35.592 179.789 36.36 177.277 36.36C175.405 36.36 174.013 35.896 173.101 34.968C172.205 34.04 171.757 32.792 171.757 31.224V28.392ZM180.085 28.008C180.085 27.224 179.853 26.624 179.389 26.208C178.925 25.776 178.237 25.56 177.325 25.56C176.429 25.56 175.741 25.776 175.261 26.208C174.781 26.624 174.541 27.224 174.541 28.008V28.536H180.085V28.008ZM188.296 20.688C188.568 20.688 188.76 20.744 188.872 20.856C188.984 20.952 189.04 21.136 189.04 21.408V23.568H191.776C192.048 23.568 192.24 23.624 192.352 23.736C192.464 23.832 192.52 24.016 192.52 24.288V25.392C192.52 25.664 192.464 25.856 192.352 25.968C192.24 26.08 192.048 26.136 191.776 26.136H189.04V30.96C189.04 32.096 189.224 32.84 189.592 33.192C189.976 33.544 190.696 33.72 191.752 33.72C192.04 33.72 192.24 33.776 192.352 33.888C192.464 33.984 192.52 34.176 192.52 34.464V35.568C192.52 35.856 192.464 36.048 192.352 36.144C192.24 36.256 192.04 36.32 191.752 36.336C189.736 36.4 188.312 36.048 187.48 35.28C186.664 34.512 186.256 33.104 186.256 31.056V26.136H184.6C184.328 26.136 184.136 26.08 184.024 25.968C183.928 25.856 183.88 25.664 183.88 25.392V24.288C183.88 24.016 183.928 23.832 184.024 23.736C184.136 23.624 184.328 23.568 184.6 23.568H186.256V21.408C186.256 21.136 186.312 20.952 186.424 20.856C186.536 20.744 186.728 20.688 187 20.688H188.296ZM195.848 18.912C196.408 18.912 196.792 19.016 197 19.224C197.208 19.432 197.312 19.808 197.312 20.352V20.568C197.312 21.128 197.208 21.512 197 21.72C196.792 21.928 196.408 22.032 195.848 22.032H195.68C195.136 22.032 194.752 21.928 194.528 21.72C194.32 21.512 194.216 21.128 194.216 20.568V20.352C194.216 19.808 194.32 19.432 194.528 19.224C194.736 19.016 195.12 18.912 195.68 18.912H195.848ZM196.424 23.568C196.696 23.568 196.888 23.624 197 23.736C197.112 23.832 197.168 24.016 197.168 24.288V35.256C197.168 35.528 197.112 35.72 197 35.832C196.888 35.944 196.696 36 196.424 36H195.104C194.832 36 194.64 35.944 194.528 35.832C194.432 35.72 194.384 35.528 194.384 35.256V24.288C194.384 24.016 194.432 23.832 194.528 23.736C194.64 23.624 194.832 23.568 195.104 23.568H196.424ZM199.531 28.128C199.531 26.56 199.987 25.352 200.899 24.504C201.827 23.64 203.211 23.208 205.051 23.208C206.411 23.208 207.523 23.496 208.387 24.072C209.267 24.648 209.867 25.408 210.187 26.352C210.283 26.656 210.291 26.888 210.211 27.048C210.131 27.192 209.947 27.32 209.659 27.432L208.603 27.768C208.315 27.88 208.091 27.896 207.931 27.816C207.787 27.736 207.659 27.552 207.547 27.264C207.131 26.192 206.259 25.656 204.931 25.656C203.187 25.656 202.315 26.44 202.315 28.008V31.56C202.315 32.312 202.539 32.896 202.987 33.312C203.435 33.712 204.083 33.912 204.931 33.912C206.259 33.912 207.131 33.36 207.547 32.256C207.659 31.968 207.787 31.792 207.931 31.728C208.091 31.664 208.315 31.68 208.603 31.776L209.683 32.088C210.227 32.296 210.395 32.656 210.187 33.168C209.355 35.296 207.571 36.36 204.835 36.36C203.059 36.36 201.731 35.936 200.851 35.088C199.971 34.224 199.531 33.008 199.531 31.44V28.128ZM224.033 18.96C226.241 18.96 227.953 19.528 229.169 20.664C230.385 21.784 230.993 23.328 230.993 25.296V29.664C230.993 31.632 230.385 33.184 229.169 34.32C227.953 35.44 226.241 36 224.033 36H218.969C218.793 36 218.665 35.968 218.585 35.904C218.521 35.824 218.489 35.696 218.489 35.52V19.44C218.489 19.264 218.521 19.144 218.585 19.08C218.665 19 218.793 18.96 218.969 18.96H224.033ZM229.241 25.296C229.241 23.792 228.793 22.632 227.897 21.816C227.001 21 225.713 20.592 224.033 20.592H220.217V34.368H224.033C225.713 34.368 227.001 33.96 227.897 33.144C228.793 32.328 229.241 31.168 229.241 29.664V25.296ZM233.497 27.72C233.497 26.344 233.961 25.264 234.889 24.48C235.833 23.696 237.121 23.304 238.753 23.304C240.401 23.304 241.697 23.696 242.641 24.48C243.585 25.264 244.057 26.344 244.057 27.72V31.944C244.057 33.32 243.585 34.4 242.641 35.184C241.697 35.952 240.401 36.336 238.753 36.336C237.121 36.336 235.833 35.944 234.889 35.16C233.961 34.376 233.497 33.304 233.497 31.944V27.72ZM242.425 27.72C242.425 26.808 242.097 26.088 241.441 25.56C240.785 25.032 239.889 24.768 238.753 24.768C237.633 24.768 236.745 25.032 236.089 25.56C235.433 26.088 235.105 26.808 235.105 27.72V31.944C235.105 32.856 235.433 33.576 236.089 34.104C236.761 34.616 237.649 34.872 238.753 34.872C239.889 34.872 240.785 34.616 241.441 34.104C242.097 33.576 242.425 32.856 242.425 31.944V27.72ZM254.618 24.336C256.138 23.648 257.586 23.304 258.962 23.304C261.89 23.304 263.354 24.824 263.354 27.864V35.568C263.354 35.728 263.322 35.84 263.258 35.904C263.21 35.968 263.098 36 262.922 36H262.178C262.018 36 261.906 35.968 261.842 35.904C261.778 35.84 261.746 35.728 261.746 35.568V27.936C261.746 25.84 260.754 24.792 258.77 24.792C257.634 24.792 256.546 25.064 255.506 25.608C255.81 26.2 255.962 26.952 255.962 27.864V35.568C255.962 35.728 255.93 35.84 255.866 35.904C255.818 35.968 255.706 36 255.53 36H254.786C254.626 36 254.514 35.968 254.45 35.904C254.386 35.84 254.354 35.728 254.354 35.568V27.936C254.354 25.84 253.338 24.792 251.306 24.792C250.362 24.792 249.522 24.952 248.786 25.272C248.53 25.384 248.402 25.6 248.402 25.92V35.568C248.402 35.856 248.258 36 247.97 36H247.202C246.914 36 246.77 35.856 246.77 35.568V25.44C246.77 25.072 246.834 24.792 246.962 24.6C247.09 24.408 247.33 24.232 247.682 24.072C248.834 23.56 250.114 23.304 251.522 23.304C252.866 23.304 253.898 23.648 254.618 24.336ZM267.324 19.248C267.66 19.248 267.892 19.312 268.02 19.44C268.148 19.568 268.212 19.8 268.212 20.136V20.304C268.212 20.64 268.148 20.872 268.02 21C267.892 21.128 267.66 21.192 267.324 21.192H267.18C266.844 21.192 266.612 21.128 266.484 21C266.356 20.872 266.292 20.64 266.292 20.304V20.136C266.292 19.8 266.356 19.568 266.484 19.44C266.612 19.312 266.844 19.248 267.18 19.248H267.324ZM267.636 23.664C267.924 23.664 268.068 23.808 268.068 24.096V35.568C268.068 35.856 267.924 36 267.636 36H266.868C266.58 36 266.436 35.856 266.436 35.568V24.096C266.436 23.808 266.58 23.664 266.868 23.664H267.636ZM272.104 24.12C273.432 23.576 274.92 23.304 276.568 23.304C279.752 23.304 281.344 24.872 281.344 28.008V35.568C281.344 35.856 281.2 36 280.912 36H280.168C280.008 36 279.896 35.968 279.832 35.904C279.768 35.84 279.736 35.728 279.736 35.568V28.056C279.736 25.88 278.616 24.792 276.376 24.792C275.24 24.792 274.176 24.968 273.184 25.32C272.944 25.432 272.824 25.632 272.824 25.92V35.568C272.824 35.856 272.68 36 272.392 36H271.624C271.336 36 271.192 35.856 271.192 35.568V25.44C271.192 25.072 271.248 24.8 271.36 24.624C271.488 24.448 271.736 24.28 272.104 24.12ZM285.3 19.248C285.636 19.248 285.868 19.312 285.996 19.44C286.124 19.568 286.188 19.8 286.188 20.136V20.304C286.188 20.64 286.124 20.872 285.996 21C285.868 21.128 285.636 21.192 285.3 21.192H285.156C284.82 21.192 284.588 21.128 284.46 21C284.332 20.872 284.268 20.64 284.268 20.304V20.136C284.268 19.8 284.332 19.568 284.46 19.44C284.588 19.312 284.82 19.248 285.156 19.248H285.3ZM285.612 23.664C285.9 23.664 286.044 23.808 286.044 24.096V35.568C286.044 35.856 285.9 36 285.612 36H284.844C284.556 36 284.412 35.856 284.412 35.568V24.096C284.412 23.808 284.556 23.664 284.844 23.664H285.612ZM288.809 28.032C288.809 26.544 289.249 25.384 290.129 24.552C291.009 23.72 292.313 23.304 294.041 23.304C296.729 23.304 298.401 24.384 299.057 26.544C299.153 26.848 299.057 27.056 298.769 27.168L298.145 27.384C297.857 27.48 297.657 27.384 297.545 27.096C297.289 26.28 296.881 25.688 296.321 25.32C295.777 24.936 295.001 24.744 293.993 24.744C292.825 24.744 291.937 25.032 291.329 25.608C290.721 26.168 290.417 26.96 290.417 27.984V31.656C290.417 32.68 290.721 33.48 291.329 34.056C291.953 34.632 292.841 34.92 293.993 34.92C295.865 34.92 297.057 34.096 297.569 32.448C297.681 32.176 297.889 32.08 298.193 32.16L298.817 32.352C299.121 32.464 299.217 32.672 299.105 32.976C298.369 35.216 296.649 36.336 293.945 36.336C292.265 36.336 290.985 35.92 290.105 35.088C289.241 34.256 288.809 33.096 288.809 31.608V28.032ZM301.28 25.824C302.176 24.144 303.784 23.304 306.104 23.304C307.88 23.304 309.12 23.736 309.824 24.6C310.544 25.448 310.904 26.6 310.904 28.056V34.344C310.904 34.76 310.84 35.056 310.712 35.232C310.6 35.408 310.376 35.568 310.04 35.712C309.08 36.128 307.752 36.336 306.056 36.336C304.072 36.336 302.712 36.04 301.976 35.448C301.24 34.84 300.872 33.896 300.872 32.616C300.872 31.256 301.272 30.296 302.072 29.736C302.888 29.176 304.248 28.896 306.152 28.896C306.808 28.896 307.856 28.976 309.296 29.136V28.032C309.296 26.992 309.056 26.184 308.576 25.608C308.112 25.032 307.272 24.744 306.056 24.744C304.472 24.744 303.352 25.328 302.696 26.496C302.52 26.736 302.32 26.8 302.096 26.688L301.52 26.448C301.216 26.336 301.136 26.128 301.28 25.824ZM309.296 30.456C307.856 30.312 306.752 30.24 305.984 30.24C304.72 30.24 303.824 30.424 303.296 30.792C302.784 31.16 302.528 31.76 302.528 32.592C302.528 33.408 302.76 34.016 303.224 34.416C303.704 34.8 304.608 34.992 305.936 34.992C307.152 34.992 308.12 34.864 308.84 34.608C309.032 34.528 309.152 34.448 309.2 34.368C309.264 34.288 309.296 34.136 309.296 33.912V30.456ZM314.714 24.12C316.042 23.576 317.53 23.304 319.178 23.304C322.362 23.304 323.954 24.872 323.954 28.008V35.568C323.954 35.856 323.81 36 323.522 36H322.778C322.618 36 322.506 35.968 322.442 35.904C322.378 35.84 322.346 35.728 322.346 35.568V28.056C322.346 25.88 321.226 24.792 318.986 24.792C317.85 24.792 316.786 24.968 315.794 25.32C315.554 25.432 315.434 25.632 315.434 25.92V35.568C315.434 35.856 315.29 36 315.002 36H314.234C313.946 36 313.802 35.856 313.802 35.568V25.44C313.802 25.072 313.858 24.8 313.97 24.624C314.098 24.448 314.346 24.28 314.714 24.12ZM326.734 25.824C327.63 24.144 329.238 23.304 331.558 23.304C333.334 23.304 334.574 23.736 335.278 24.6C335.998 25.448 336.358 26.6 336.358 28.056V34.344C336.358 34.76 336.294 35.056 336.166 35.232C336.054 35.408 335.83 35.568 335.494 35.712C334.534 36.128 333.206 36.336 331.51 36.336C329.526 36.336 328.166 36.04 327.43 35.448C326.694 34.84 326.326 33.896 326.326 32.616C326.326 31.256 326.726 30.296 327.526 29.736C328.342 29.176 329.702 28.896 331.605 28.896C332.262 28.896 333.31 28.976 334.75 29.136V28.032C334.75 26.992 334.51 26.184 334.03 25.608C333.566 25.032 332.726 24.744 331.51 24.744C329.926 24.744 328.806 25.328 328.15 26.496C327.974 26.736 327.774 26.8 327.55 26.688L326.974 26.448C326.67 26.336 326.59 26.128 326.734 25.824ZM334.75 30.456C333.31 30.312 332.206 30.24 331.438 30.24C330.174 30.24 329.278 30.424 328.75 30.792C328.238 31.16 327.982 31.76 327.982 32.592C327.982 33.408 328.214 34.016 328.678 34.416C329.158 34.8 330.062 34.992 331.39 34.992C332.606 34.992 333.574 34.864 334.294 34.608C334.486 34.528 334.606 34.448 334.654 34.368C334.718 34.288 334.75 34.136 334.75 33.912V30.456Z" fill="#16171A"/>
<g clip-path="url(#clip0_308_1144)">
<path d="M50.1104 25.4981V20.6961C50.1104 18.0794 47.981 15.951 45.3643 15.951H41.655C42.6422 13.9239 42.9491 11.8493 42.5641 9.75783C41.5073 4.00658 35.5293 0.377375 35.2751 0.225499C34.2331 -0.396771 32.9042 0.341515 32.8821 1.55441C32.7576 8.43313 17.1366 4.21435 12.5065 10.9043C11.5646 12.2638 11.167 13.9566 11.3115 15.951H8.63574C6.01905 15.951 3.88963 18.0794 3.88963 20.6961V25.4981C1.6811 25.902 0.000976562 27.8406 0.000976562 30.1651V49.254C0.000976562 51.8707 2.12934 54.0001 4.74709 54.0001H49.253C51.8707 54.0001 53.9991 51.8707 53.9991 49.254V30.1651C53.9991 27.8405 52.319 25.9019 50.1104 25.4981ZM15.1073 12.7045C17.5373 9.19346 26.6678 10.1005 31.8063 7.76224C33.5982 6.94696 34.828 5.78996 35.485 4.30706C37.0017 5.60328 38.9813 7.73904 39.4549 10.342C39.7956 12.2162 39.3167 14.0577 37.9899 15.9509H14.483C14.3416 14.5831 14.5473 13.5135 15.1073 12.7045ZM7.0537 20.696C7.0537 19.8237 7.76351 19.1139 8.63574 19.1139H45.3643C46.2366 19.1139 46.9464 19.8237 46.9464 20.696V25.4189H7.0537V20.696ZM3.16505 36.0702H37.1251V43.3476H3.16505V36.0702ZM50.835 49.2539C50.835 50.1262 50.1252 50.836 49.253 50.836H4.74709C3.87486 50.836 3.16505 50.1262 3.16505 49.2539V46.5117H38.7071C39.5804 46.5117 40.2892 45.803 40.2892 44.9297V34.4882C40.2892 33.6149 39.5804 32.9062 38.7071 32.9062H3.16505V30.165C3.16505 29.2928 3.87486 28.583 4.74709 28.583H49.253C50.1252 28.583 50.835 29.2928 50.835 30.165V49.2539Z" fill="black"/>
</g>
<defs>
<clipPath id="clip0_308_1144">
<rect width="54" height="54" fill="white"/>
</clipPath>
</defs>
</svg>
