<svg width="289" height="48" viewBox="0 0 289 48" fill="none" xmlns="http://www.w3.org/2000/svg">
<path d="M83.144 16.96C83.32 16.96 83.44 17 83.504 17.08C83.568 17.144 83.6 17.264 83.6 17.44V32.368H91.736C92.04 32.368 92.192 32.528 92.192 32.848V33.52C92.192 33.84 92.04 34 91.736 34H82.352C82.176 34 82.048 33.968 81.968 33.904C81.904 33.824 81.872 33.696 81.872 33.52V17.44C81.872 17.264 81.904 17.144 81.968 17.08C82.048 17 82.176 16.96 82.352 16.96H83.144ZM93.8116 23.824C94.7076 22.144 96.3156 21.304 98.6356 21.304C100.412 21.304 101.652 21.736 102.356 22.6C103.076 23.448 103.436 24.6 103.436 26.056V32.344C103.436 32.76 103.372 33.056 103.244 33.232C103.132 33.408 102.908 33.568 102.572 33.712C101.612 34.128 100.284 34.336 98.5876 34.336C96.6036 34.336 95.2436 34.04 94.5076 33.448C93.7716 32.84 93.4036 31.896 93.4036 30.616C93.4036 29.256 93.8036 28.296 94.6036 27.736C95.4196 27.176 96.7796 26.896 98.6836 26.896C99.3396 26.896 100.388 26.976 101.828 27.136V26.032C101.828 24.992 101.588 24.184 101.108 23.608C100.644 23.032 99.8036 22.744 98.5876 22.744C97.0036 22.744 95.8836 23.328 95.2276 24.496C95.0516 24.736 94.8516 24.8 94.6276 24.688L94.0516 24.448C93.7476 24.336 93.6676 24.128 93.8116 23.824ZM101.828 28.456C100.388 28.312 99.2836 28.24 98.5156 28.24C97.2516 28.24 96.3556 28.424 95.8276 28.792C95.3156 29.16 95.0596 29.76 95.0596 30.592C95.0596 31.408 95.2916 32.016 95.7556 32.416C96.2356 32.8 97.1396 32.992 98.4676 32.992C99.6836 32.992 100.652 32.864 101.372 32.608C101.564 32.528 101.684 32.448 101.732 32.368C101.796 32.288 101.828 32.136 101.828 31.912V28.456ZM119.589 16.96C121.269 16.96 122.589 17.432 123.549 18.376C124.509 19.304 124.989 20.592 124.989 22.24C124.989 23.472 124.709 24.504 124.149 25.336C123.605 26.168 122.829 26.752 121.821 27.088C122.109 27.328 122.365 27.672 122.589 28.12L125.229 33.184C125.517 33.728 125.381 34 124.821 34H123.429C122.901 34 122.533 33.96 122.325 33.88C122.117 33.784 121.941 33.584 121.797 33.28L119.781 29.2C119.461 28.528 119.109 28.08 118.725 27.856C118.341 27.632 117.741 27.52 116.925 27.52H115.149V33.184C115.149 33.488 115.085 33.704 114.957 33.832C114.845 33.944 114.637 34 114.333 34H112.965C112.661 34 112.445 33.944 112.317 33.832C112.189 33.704 112.125 33.488 112.125 33.184V17.776C112.125 17.472 112.189 17.264 112.317 17.152C112.445 17.024 112.661 16.96 112.965 16.96H119.589ZM121.149 24.088C121.597 23.656 121.821 23.04 121.821 22.24C121.821 21.44 121.605 20.832 121.173 20.416C120.741 19.984 120.117 19.768 119.301 19.768H115.149V24.712H119.301C120.101 24.712 120.717 24.504 121.149 24.088ZM126.851 26.392C126.851 24.712 127.323 23.432 128.267 22.552C129.227 21.656 130.611 21.208 132.419 21.208C134.243 21.208 135.619 21.672 136.547 22.6C137.491 23.528 137.963 24.72 137.963 26.176V27.64C137.963 28.328 137.603 28.672 136.883 28.672H129.635V29.56C129.635 30.344 129.867 30.944 130.331 31.36C130.811 31.76 131.491 31.96 132.371 31.96C133.715 31.96 134.659 31.536 135.203 30.688C135.395 30.416 135.571 30.264 135.731 30.232C135.907 30.184 136.139 30.24 136.427 30.4L137.267 30.856C137.811 31.112 137.907 31.512 137.555 32.056C136.611 33.592 134.883 34.36 132.371 34.36C130.499 34.36 129.107 33.896 128.195 32.968C127.299 32.04 126.851 30.792 126.851 29.224V26.392ZM135.179 26.008C135.179 25.224 134.947 24.624 134.483 24.208C134.019 23.776 133.331 23.56 132.419 23.56C131.523 23.56 130.835 23.776 130.355 24.208C129.875 24.624 129.635 25.224 129.635 26.008V26.536H135.179V26.008ZM141.061 22.024C142.421 21.48 143.997 21.208 145.789 21.208C147.469 21.208 148.717 21.624 149.533 22.456C150.365 23.288 150.781 24.48 150.781 26.032V33.256C150.781 33.528 150.725 33.72 150.613 33.832C150.501 33.944 150.309 34 150.037 34H148.717C148.445 34 148.253 33.944 148.141 33.832C148.045 33.72 147.997 33.528 147.997 33.256V26.104C147.997 24.536 147.125 23.752 145.381 23.752C144.613 23.752 143.845 23.856 143.077 24.064C142.965 24.112 142.909 24.192 142.909 24.304V33.256C142.909 33.528 142.853 33.72 142.741 33.832C142.645 33.944 142.461 34 142.189 34H140.869C140.597 34 140.405 33.944 140.293 33.832C140.181 33.72 140.125 33.528 140.125 33.256V23.392C140.125 23.008 140.181 22.728 140.293 22.552C140.421 22.36 140.677 22.184 141.061 22.024ZM156.585 18.688C156.857 18.688 157.049 18.744 157.161 18.856C157.273 18.952 157.329 19.136 157.329 19.408V21.568H160.065C160.337 21.568 160.529 21.624 160.641 21.736C160.753 21.832 160.809 22.016 160.809 22.288V23.392C160.809 23.664 160.753 23.856 160.641 23.968C160.529 24.08 160.337 24.136 160.065 24.136H157.329V28.96C157.329 30.096 157.513 30.84 157.881 31.192C158.265 31.544 158.985 31.72 160.041 31.72C160.329 31.72 160.529 31.776 160.641 31.888C160.753 31.984 160.809 32.176 160.809 32.464V33.568C160.809 33.856 160.753 34.048 160.641 34.144C160.529 34.256 160.329 34.32 160.041 34.336C158.025 34.4 156.601 34.048 155.769 33.28C154.953 32.512 154.545 31.104 154.545 29.056V24.136H152.889C152.617 24.136 152.425 24.08 152.313 23.968C152.217 23.856 152.169 23.664 152.169 23.392V22.288C152.169 22.016 152.217 21.832 152.313 21.736C152.425 21.624 152.617 21.568 152.889 21.568H154.545V19.408C154.545 19.136 154.601 18.952 154.713 18.856C154.825 18.744 155.017 18.688 155.289 18.688H156.585ZM174.369 16.96C176.577 16.96 178.289 17.528 179.505 18.664C180.721 19.784 181.329 21.328 181.329 23.296V27.664C181.329 29.632 180.721 31.184 179.505 32.32C178.289 33.44 176.577 34 174.369 34H169.305C169.129 34 169.001 33.968 168.921 33.904C168.857 33.824 168.825 33.696 168.825 33.52V17.44C168.825 17.264 168.857 17.144 168.921 17.08C169.001 17 169.129 16.96 169.305 16.96H174.369ZM179.577 23.296C179.577 21.792 179.129 20.632 178.233 19.816C177.337 19 176.049 18.592 174.369 18.592H170.553V32.368H174.369C176.049 32.368 177.337 31.96 178.233 31.144C179.129 30.328 179.577 29.168 179.577 27.664V23.296ZM183.833 25.72C183.833 24.344 184.297 23.264 185.225 22.48C186.169 21.696 187.457 21.304 189.089 21.304C190.737 21.304 192.033 21.696 192.977 22.48C193.921 23.264 194.393 24.344 194.393 25.72V29.944C194.393 31.32 193.921 32.4 192.977 33.184C192.033 33.952 190.737 34.336 189.089 34.336C187.457 34.336 186.169 33.944 185.225 33.16C184.297 32.376 183.833 31.304 183.833 29.944V25.72ZM192.761 25.72C192.761 24.808 192.433 24.088 191.777 23.56C191.121 23.032 190.225 22.768 189.089 22.768C187.969 22.768 187.081 23.032 186.425 23.56C185.769 24.088 185.441 24.808 185.441 25.72V29.944C185.441 30.856 185.769 31.576 186.425 32.104C187.097 32.616 187.985 32.872 189.089 32.872C190.225 32.872 191.121 32.616 191.777 32.104C192.433 31.576 192.761 30.856 192.761 29.944V25.72ZM204.954 22.336C206.474 21.648 207.922 21.304 209.298 21.304C212.226 21.304 213.69 22.824 213.69 25.864V33.568C213.69 33.728 213.658 33.84 213.594 33.904C213.546 33.968 213.434 34 213.258 34H212.514C212.354 34 212.242 33.968 212.178 33.904C212.114 33.84 212.082 33.728 212.082 33.568V25.936C212.082 23.84 211.09 22.792 209.106 22.792C207.97 22.792 206.882 23.064 205.842 23.608C206.146 24.2 206.298 24.952 206.298 25.864V33.568C206.298 33.728 206.266 33.84 206.202 33.904C206.154 33.968 206.042 34 205.866 34H205.122C204.962 34 204.85 33.968 204.786 33.904C204.722 33.84 204.69 33.728 204.69 33.568V25.936C204.69 23.84 203.674 22.792 201.642 22.792C200.698 22.792 199.858 22.952 199.122 23.272C198.866 23.384 198.738 23.6 198.738 23.92V33.568C198.738 33.856 198.594 34 198.306 34H197.538C197.25 34 197.106 33.856 197.106 33.568V23.44C197.106 23.072 197.17 22.792 197.298 22.6C197.426 22.408 197.666 22.232 198.018 22.072C199.17 21.56 200.45 21.304 201.858 21.304C203.202 21.304 204.234 21.648 204.954 22.336ZM217.66 17.248C217.996 17.248 218.228 17.312 218.355 17.44C218.484 17.568 218.548 17.8 218.548 18.136V18.304C218.548 18.64 218.484 18.872 218.355 19C218.228 19.128 217.996 19.192 217.66 19.192H217.516C217.18 19.192 216.948 19.128 216.82 19C216.692 18.872 216.628 18.64 216.628 18.304V18.136C216.628 17.8 216.692 17.568 216.82 17.44C216.948 17.312 217.18 17.248 217.516 17.248H217.66ZM217.972 21.664C218.26 21.664 218.404 21.808 218.404 22.096V33.568C218.404 33.856 218.26 34 217.972 34H217.204C216.916 34 216.771 33.856 216.771 33.568V22.096C216.771 21.808 216.916 21.664 217.204 21.664H217.972ZM222.44 22.12C223.768 21.576 225.256 21.304 226.904 21.304C230.088 21.304 231.68 22.872 231.68 26.008V33.568C231.68 33.856 231.536 34 231.248 34H230.504C230.344 34 230.232 33.968 230.168 33.904C230.104 33.84 230.072 33.728 230.072 33.568V26.056C230.072 23.88 228.952 22.792 226.712 22.792C225.576 22.792 224.512 22.968 223.52 23.32C223.28 23.432 223.16 23.632 223.16 23.92V33.568C223.16 33.856 223.016 34 222.728 34H221.96C221.672 34 221.528 33.856 221.528 33.568V23.44C221.528 23.072 221.584 22.8 221.696 22.624C221.824 22.448 222.072 22.28 222.44 22.12ZM235.636 17.248C235.972 17.248 236.204 17.312 236.332 17.44C236.46 17.568 236.524 17.8 236.524 18.136V18.304C236.524 18.64 236.46 18.872 236.332 19C236.204 19.128 235.972 19.192 235.636 19.192H235.492C235.156 19.192 234.924 19.128 234.796 19C234.668 18.872 234.604 18.64 234.604 18.304V18.136C234.604 17.8 234.668 17.568 234.796 17.44C234.924 17.312 235.156 17.248 235.492 17.248H235.636ZM235.948 21.664C236.236 21.664 236.38 21.808 236.38 22.096V33.568C236.38 33.856 236.236 34 235.948 34H235.18C234.892 34 234.748 33.856 234.748 33.568V22.096C234.748 21.808 234.892 21.664 235.18 21.664H235.948ZM239.145 26.032C239.145 24.544 239.585 23.384 240.465 22.552C241.345 21.72 242.649 21.304 244.377 21.304C247.065 21.304 248.737 22.384 249.393 24.544C249.489 24.848 249.393 25.056 249.105 25.168L248.481 25.384C248.193 25.48 247.993 25.384 247.881 25.096C247.625 24.28 247.217 23.688 246.657 23.32C246.113 22.936 245.337 22.744 244.329 22.744C243.161 22.744 242.273 23.032 241.665 23.608C241.057 24.168 240.753 24.96 240.753 25.984V29.656C240.753 30.68 241.057 31.48 241.665 32.056C242.289 32.632 243.177 32.92 244.329 32.92C246.201 32.92 247.393 32.096 247.905 30.448C248.017 30.176 248.225 30.08 248.529 30.16L249.153 30.352C249.457 30.464 249.553 30.672 249.441 30.976C248.705 33.216 246.985 34.336 244.281 34.336C242.601 34.336 241.321 33.92 240.441 33.088C239.577 32.256 239.145 31.096 239.145 29.608V26.032ZM251.616 23.824C252.512 22.144 254.12 21.304 256.44 21.304C258.216 21.304 259.456 21.736 260.16 22.6C260.88 23.448 261.24 24.6 261.24 26.056V32.344C261.24 32.76 261.176 33.056 261.048 33.232C260.936 33.408 260.712 33.568 260.376 33.712C259.416 34.128 258.088 34.336 256.392 34.336C254.408 34.336 253.048 34.04 252.312 33.448C251.576 32.84 251.208 31.896 251.208 30.616C251.208 29.256 251.608 28.296 252.408 27.736C253.224 27.176 254.584 26.896 256.488 26.896C257.144 26.896 258.192 26.976 259.632 27.136V26.032C259.632 24.992 259.392 24.184 258.912 23.608C258.448 23.032 257.608 22.744 256.392 22.744C254.808 22.744 253.688 23.328 253.032 24.496C252.856 24.736 252.656 24.8 252.432 24.688L251.856 24.448C251.552 24.336 251.472 24.128 251.616 23.824ZM259.632 28.456C258.192 28.312 257.088 28.24 256.32 28.24C255.056 28.24 254.16 28.424 253.632 28.792C253.12 29.16 252.864 29.76 252.864 30.592C252.864 31.408 253.096 32.016 253.56 32.416C254.04 32.8 254.944 32.992 256.272 32.992C257.488 32.992 258.456 32.864 259.176 32.608C259.368 32.528 259.488 32.448 259.536 32.368C259.6 32.288 259.632 32.136 259.632 31.912V28.456ZM265.05 22.12C266.378 21.576 267.866 21.304 269.514 21.304C272.698 21.304 274.29 22.872 274.29 26.008V33.568C274.29 33.856 274.146 34 273.858 34H273.114C272.954 34 272.842 33.968 272.778 33.904C272.714 33.84 272.682 33.728 272.682 33.568V26.056C272.682 23.88 271.562 22.792 269.322 22.792C268.186 22.792 267.122 22.968 266.13 23.32C265.89 23.432 265.77 23.632 265.77 23.92V33.568C265.77 33.856 265.626 34 265.338 34H264.57C264.282 34 264.138 33.856 264.138 33.568V23.44C264.138 23.072 264.194 22.8 264.306 22.624C264.434 22.448 264.682 22.28 265.05 22.12ZM277.069 23.824C277.965 22.144 279.573 21.304 281.893 21.304C283.669 21.304 284.909 21.736 285.613 22.6C286.333 23.448 286.693 24.6 286.693 26.056V32.344C286.693 32.76 286.629 33.056 286.501 33.232C286.389 33.408 286.165 33.568 285.829 33.712C284.869 34.128 283.541 34.336 281.845 34.336C279.861 34.336 278.501 34.04 277.765 33.448C277.029 32.84 276.661 31.896 276.661 30.616C276.661 29.256 277.061 28.296 277.861 27.736C278.677 27.176 280.037 26.896 281.941 26.896C282.597 26.896 283.645 26.976 285.085 27.136V26.032C285.085 24.992 284.845 24.184 284.365 23.608C283.901 23.032 283.061 22.744 281.845 22.744C280.261 22.744 279.141 23.328 278.485 24.496C278.309 24.736 278.109 24.8 277.885 24.688L277.309 24.448C277.005 24.336 276.925 24.128 277.069 23.824ZM285.085 28.456C283.645 28.312 282.541 28.24 281.773 28.24C280.509 28.24 279.613 28.424 279.085 28.792C278.573 29.16 278.317 29.76 278.317 30.592C278.317 31.408 278.549 32.016 279.013 32.416C279.493 32.8 280.397 32.992 281.725 32.992C282.941 32.992 283.909 32.864 284.629 32.608C284.821 32.528 284.941 32.448 284.989 32.368C285.053 32.288 285.085 32.136 285.085 31.912V28.456Z" fill="#16171A"/>
<path d="M29.778 47.0006C26.6461 47.0013 23.6115 45.913 21.1938 43.9222C18.7761 41.9314 17.1258 39.1619 16.5255 36.0881C16.4765 35.7656 16.4983 35.4364 16.5892 35.1231C16.6802 34.8099 16.8381 34.5202 17.0521 34.2741C17.2662 34.0279 17.5311 33.8313 17.8287 33.6977C18.1263 33.5642 18.4493 33.4969 18.7755 33.5006C19.3115 33.4928 19.8327 33.6767 20.2452 34.019C20.6577 34.3614 20.9344 34.8398 21.0255 35.3681C21.4492 37.3907 22.5561 39.2058 24.1601 40.5086C25.7642 41.8115 27.7677 42.5226 29.8342 42.5226C31.9007 42.5226 33.9042 41.8115 35.5083 40.5086C37.1124 39.2058 38.2192 37.3907 38.643 35.3681C38.7341 34.8398 39.0108 34.3614 39.4233 34.019C39.8358 33.6767 40.357 33.4928 40.893 33.5006C41.2191 33.4969 41.5422 33.5642 41.8397 33.6977C42.1373 33.8313 42.4023 34.0279 42.6163 34.2741C42.8303 34.5202 42.9883 34.8099 43.0792 35.1231C43.1702 35.4364 43.1919 35.7656 43.143 36.0881C42.5391 39.181 40.8723 41.9651 38.4313 43.9581C35.9904 45.9512 32.9291 47.0275 29.778 47.0006Z" fill="black"/>
<path d="M1.30432 17.8873C0.460486 19.4325 0.0100087 21.1984 0 23.0004L4.70469 22.9345C4.70469 20.7943 4.61569 19.2568 6.65556 18.0156L27.5217 5.56462C28.2768 5.11646 29.1218 4.88248 29.98 4.88387C30.84 4.88922 31.6851 5.13078 32.4384 5.58658L53.2645 18.0156C54.9885 19.0429 55.9641 21.0214 55.9627 23.0004L60 22.9345C59.99 21.1325 59.5395 19.3666 58.6957 17.8214C57.8518 16.2762 56.6456 15.0084 55.2032 14.1507L34.3371 1.72172C32.9971 0.920264 31.4957 0.500366 29.97 0.500366C28.4443 0.500366 26.9429 0.920264 25.6029 1.72172L4.7968 14.2166C3.35437 15.0743 2.14816 16.342 1.30432 17.8873Z" fill="black"/>
</svg>
