<svg width="289" height="60" viewBox="0 0 289 60" fill="none" xmlns="http://www.w3.org/2000/svg">
<path d="M83.144 20.96C83.32 20.96 83.44 21 83.504 21.08C83.568 21.144 83.6 21.264 83.6 21.44V36.368H91.736C92.04 36.368 92.192 36.528 92.192 36.848V37.52C92.192 37.84 92.04 38 91.736 38H82.352C82.176 38 82.048 37.968 81.968 37.904C81.904 37.824 81.872 37.696 81.872 37.52V21.44C81.872 21.264 81.904 21.144 81.968 21.08C82.048 21 82.176 20.96 82.352 20.96H83.144ZM93.8116 27.824C94.7076 26.144 96.3156 25.304 98.6356 25.304C100.412 25.304 101.652 25.736 102.356 26.6C103.076 27.448 103.436 28.6 103.436 30.056V36.344C103.436 36.76 103.372 37.056 103.244 37.232C103.132 37.408 102.908 37.568 102.572 37.712C101.612 38.128 100.284 38.336 98.5876 38.336C96.6036 38.336 95.2436 38.04 94.5076 37.448C93.7716 36.84 93.4036 35.896 93.4036 34.616C93.4036 33.256 93.8036 32.296 94.6036 31.736C95.4196 31.176 96.7796 30.896 98.6836 30.896C99.3396 30.896 100.388 30.976 101.828 31.136V30.032C101.828 28.992 101.588 28.184 101.108 27.608C100.644 27.032 99.8036 26.744 98.5876 26.744C97.0036 26.744 95.8836 27.328 95.2276 28.496C95.0516 28.736 94.8516 28.8 94.6276 28.688L94.0516 28.448C93.7476 28.336 93.6676 28.128 93.8116 27.824ZM101.828 32.456C100.388 32.312 99.2836 32.24 98.5156 32.24C97.2516 32.24 96.3556 32.424 95.8276 32.792C95.3156 33.16 95.0596 33.76 95.0596 34.592C95.0596 35.408 95.2916 36.016 95.7556 36.416C96.2356 36.8 97.1396 36.992 98.4676 36.992C99.6836 36.992 100.652 36.864 101.372 36.608C101.564 36.528 101.684 36.448 101.732 36.368C101.796 36.288 101.828 36.136 101.828 35.912V32.456ZM119.589 20.96C121.269 20.96 122.589 21.432 123.549 22.376C124.509 23.304 124.989 24.592 124.989 26.24C124.989 27.472 124.709 28.504 124.149 29.336C123.605 30.168 122.829 30.752 121.821 31.088C122.109 31.328 122.365 31.672 122.589 32.12L125.229 37.184C125.517 37.728 125.381 38 124.821 38H123.429C122.901 38 122.533 37.96 122.325 37.88C122.117 37.784 121.941 37.584 121.797 37.28L119.781 33.2C119.461 32.528 119.109 32.08 118.725 31.856C118.341 31.632 117.741 31.52 116.925 31.52H115.149V37.184C115.149 37.488 115.085 37.704 114.957 37.832C114.845 37.944 114.637 38 114.333 38H112.965C112.661 38 112.445 37.944 112.317 37.832C112.189 37.704 112.125 37.488 112.125 37.184V21.776C112.125 21.472 112.189 21.264 112.317 21.152C112.445 21.024 112.661 20.96 112.965 20.96H119.589ZM121.149 28.088C121.597 27.656 121.821 27.04 121.821 26.24C121.821 25.44 121.605 24.832 121.173 24.416C120.741 23.984 120.117 23.768 119.301 23.768H115.149V28.712H119.301C120.101 28.712 120.717 28.504 121.149 28.088ZM126.851 30.392C126.851 28.712 127.323 27.432 128.267 26.552C129.227 25.656 130.611 25.208 132.419 25.208C134.243 25.208 135.619 25.672 136.547 26.6C137.491 27.528 137.963 28.72 137.963 30.176V31.64C137.963 32.328 137.603 32.672 136.883 32.672H129.635V33.56C129.635 34.344 129.867 34.944 130.331 35.36C130.811 35.76 131.491 35.96 132.371 35.96C133.715 35.96 134.659 35.536 135.203 34.688C135.395 34.416 135.571 34.264 135.731 34.232C135.907 34.184 136.139 34.24 136.427 34.4L137.267 34.856C137.811 35.112 137.907 35.512 137.555 36.056C136.611 37.592 134.883 38.36 132.371 38.36C130.499 38.36 129.107 37.896 128.195 36.968C127.299 36.04 126.851 34.792 126.851 33.224V30.392ZM135.179 30.008C135.179 29.224 134.947 28.624 134.483 28.208C134.019 27.776 133.331 27.56 132.419 27.56C131.523 27.56 130.835 27.776 130.355 28.208C129.875 28.624 129.635 29.224 129.635 30.008V30.536H135.179V30.008ZM141.061 26.024C142.421 25.48 143.997 25.208 145.789 25.208C147.469 25.208 148.717 25.624 149.533 26.456C150.365 27.288 150.781 28.48 150.781 30.032V37.256C150.781 37.528 150.725 37.72 150.613 37.832C150.501 37.944 150.309 38 150.037 38H148.717C148.445 38 148.253 37.944 148.141 37.832C148.045 37.72 147.997 37.528 147.997 37.256V30.104C147.997 28.536 147.125 27.752 145.381 27.752C144.613 27.752 143.845 27.856 143.077 28.064C142.965 28.112 142.909 28.192 142.909 28.304V37.256C142.909 37.528 142.853 37.72 142.741 37.832C142.645 37.944 142.461 38 142.189 38H140.869C140.597 38 140.405 37.944 140.293 37.832C140.181 37.72 140.125 37.528 140.125 37.256V27.392C140.125 27.008 140.181 26.728 140.293 26.552C140.421 26.36 140.677 26.184 141.061 26.024ZM156.585 22.688C156.857 22.688 157.049 22.744 157.161 22.856C157.273 22.952 157.329 23.136 157.329 23.408V25.568H160.065C160.337 25.568 160.529 25.624 160.641 25.736C160.753 25.832 160.809 26.016 160.809 26.288V27.392C160.809 27.664 160.753 27.856 160.641 27.968C160.529 28.08 160.337 28.136 160.065 28.136H157.329V32.96C157.329 34.096 157.513 34.84 157.881 35.192C158.265 35.544 158.985 35.72 160.041 35.72C160.329 35.72 160.529 35.776 160.641 35.888C160.753 35.984 160.809 36.176 160.809 36.464V37.568C160.809 37.856 160.753 38.048 160.641 38.144C160.529 38.256 160.329 38.32 160.041 38.336C158.025 38.4 156.601 38.048 155.769 37.28C154.953 36.512 154.545 35.104 154.545 33.056V28.136H152.889C152.617 28.136 152.425 28.08 152.313 27.968C152.217 27.856 152.169 27.664 152.169 27.392V26.288C152.169 26.016 152.217 25.832 152.313 25.736C152.425 25.624 152.617 25.568 152.889 25.568H154.545V23.408C154.545 23.136 154.601 22.952 154.713 22.856C154.825 22.744 155.017 22.688 155.289 22.688H156.585ZM174.369 20.96C176.577 20.96 178.289 21.528 179.505 22.664C180.721 23.784 181.329 25.328 181.329 27.296V31.664C181.329 33.632 180.721 35.184 179.505 36.32C178.289 37.44 176.577 38 174.369 38H169.305C169.129 38 169.001 37.968 168.921 37.904C168.857 37.824 168.825 37.696 168.825 37.52V21.44C168.825 21.264 168.857 21.144 168.921 21.08C169.001 21 169.129 20.96 169.305 20.96H174.369ZM179.577 27.296C179.577 25.792 179.129 24.632 178.233 23.816C177.337 23 176.049 22.592 174.369 22.592H170.553V36.368H174.369C176.049 36.368 177.337 35.96 178.233 35.144C179.129 34.328 179.577 33.168 179.577 31.664V27.296ZM183.833 29.72C183.833 28.344 184.297 27.264 185.225 26.48C186.169 25.696 187.457 25.304 189.089 25.304C190.737 25.304 192.033 25.696 192.977 26.48C193.921 27.264 194.393 28.344 194.393 29.72V33.944C194.393 35.32 193.921 36.4 192.977 37.184C192.033 37.952 190.737 38.336 189.089 38.336C187.457 38.336 186.169 37.944 185.225 37.16C184.297 36.376 183.833 35.304 183.833 33.944V29.72ZM192.761 29.72C192.761 28.808 192.433 28.088 191.777 27.56C191.121 27.032 190.225 26.768 189.089 26.768C187.969 26.768 187.081 27.032 186.425 27.56C185.769 28.088 185.441 28.808 185.441 29.72V33.944C185.441 34.856 185.769 35.576 186.425 36.104C187.097 36.616 187.985 36.872 189.089 36.872C190.225 36.872 191.121 36.616 191.777 36.104C192.433 35.576 192.761 34.856 192.761 33.944V29.72ZM204.954 26.336C206.474 25.648 207.922 25.304 209.298 25.304C212.226 25.304 213.69 26.824 213.69 29.864V37.568C213.69 37.728 213.658 37.84 213.594 37.904C213.546 37.968 213.434 38 213.258 38H212.514C212.354 38 212.242 37.968 212.178 37.904C212.114 37.84 212.082 37.728 212.082 37.568V29.936C212.082 27.84 211.09 26.792 209.106 26.792C207.97 26.792 206.882 27.064 205.842 27.608C206.146 28.2 206.298 28.952 206.298 29.864V37.568C206.298 37.728 206.266 37.84 206.202 37.904C206.154 37.968 206.042 38 205.866 38H205.122C204.962 38 204.85 37.968 204.786 37.904C204.722 37.84 204.69 37.728 204.69 37.568V29.936C204.69 27.84 203.674 26.792 201.642 26.792C200.698 26.792 199.858 26.952 199.122 27.272C198.866 27.384 198.738 27.6 198.738 27.92V37.568C198.738 37.856 198.594 38 198.306 38H197.538C197.25 38 197.106 37.856 197.106 37.568V27.44C197.106 27.072 197.17 26.792 197.298 26.6C197.426 26.408 197.666 26.232 198.018 26.072C199.17 25.56 200.45 25.304 201.858 25.304C203.202 25.304 204.234 25.648 204.954 26.336ZM217.66 21.248C217.996 21.248 218.228 21.312 218.355 21.44C218.484 21.568 218.548 21.8 218.548 22.136V22.304C218.548 22.64 218.484 22.872 218.355 23C218.228 23.128 217.996 23.192 217.66 23.192H217.516C217.18 23.192 216.948 23.128 216.82 23C216.692 22.872 216.628 22.64 216.628 22.304V22.136C216.628 21.8 216.692 21.568 216.82 21.44C216.948 21.312 217.18 21.248 217.516 21.248H217.66ZM217.972 25.664C218.26 25.664 218.404 25.808 218.404 26.096V37.568C218.404 37.856 218.26 38 217.972 38H217.204C216.916 38 216.771 37.856 216.771 37.568V26.096C216.771 25.808 216.916 25.664 217.204 25.664H217.972ZM222.44 26.12C223.768 25.576 225.256 25.304 226.904 25.304C230.088 25.304 231.68 26.872 231.68 30.008V37.568C231.68 37.856 231.536 38 231.248 38H230.504C230.344 38 230.232 37.968 230.168 37.904C230.104 37.84 230.072 37.728 230.072 37.568V30.056C230.072 27.88 228.952 26.792 226.712 26.792C225.576 26.792 224.512 26.968 223.52 27.32C223.28 27.432 223.16 27.632 223.16 27.92V37.568C223.16 37.856 223.016 38 222.728 38H221.96C221.672 38 221.528 37.856 221.528 37.568V27.44C221.528 27.072 221.584 26.8 221.696 26.624C221.824 26.448 222.072 26.28 222.44 26.12ZM235.636 21.248C235.972 21.248 236.204 21.312 236.332 21.44C236.46 21.568 236.524 21.8 236.524 22.136V22.304C236.524 22.64 236.46 22.872 236.332 23C236.204 23.128 235.972 23.192 235.636 23.192H235.492C235.156 23.192 234.924 23.128 234.796 23C234.668 22.872 234.604 22.64 234.604 22.304V22.136C234.604 21.8 234.668 21.568 234.796 21.44C234.924 21.312 235.156 21.248 235.492 21.248H235.636ZM235.948 25.664C236.236 25.664 236.38 25.808 236.38 26.096V37.568C236.38 37.856 236.236 38 235.948 38H235.18C234.892 38 234.748 37.856 234.748 37.568V26.096C234.748 25.808 234.892 25.664 235.18 25.664H235.948ZM239.145 30.032C239.145 28.544 239.585 27.384 240.465 26.552C241.345 25.72 242.649 25.304 244.377 25.304C247.065 25.304 248.737 26.384 249.393 28.544C249.489 28.848 249.393 29.056 249.105 29.168L248.481 29.384C248.193 29.48 247.993 29.384 247.881 29.096C247.625 28.28 247.217 27.688 246.657 27.32C246.113 26.936 245.337 26.744 244.329 26.744C243.161 26.744 242.273 27.032 241.665 27.608C241.057 28.168 240.753 28.96 240.753 29.984V33.656C240.753 34.68 241.057 35.48 241.665 36.056C242.289 36.632 243.177 36.92 244.329 36.92C246.201 36.92 247.393 36.096 247.905 34.448C248.017 34.176 248.225 34.08 248.529 34.16L249.153 34.352C249.457 34.464 249.553 34.672 249.441 34.976C248.705 37.216 246.985 38.336 244.281 38.336C242.601 38.336 241.321 37.92 240.441 37.088C239.577 36.256 239.145 35.096 239.145 33.608V30.032ZM251.616 27.824C252.512 26.144 254.12 25.304 256.44 25.304C258.216 25.304 259.456 25.736 260.16 26.6C260.88 27.448 261.24 28.6 261.24 30.056V36.344C261.24 36.76 261.176 37.056 261.048 37.232C260.936 37.408 260.712 37.568 260.376 37.712C259.416 38.128 258.088 38.336 256.392 38.336C254.408 38.336 253.048 38.04 252.312 37.448C251.576 36.84 251.208 35.896 251.208 34.616C251.208 33.256 251.608 32.296 252.408 31.736C253.224 31.176 254.584 30.896 256.488 30.896C257.144 30.896 258.192 30.976 259.632 31.136V30.032C259.632 28.992 259.392 28.184 258.912 27.608C258.448 27.032 257.608 26.744 256.392 26.744C254.808 26.744 253.688 27.328 253.032 28.496C252.856 28.736 252.656 28.8 252.432 28.688L251.856 28.448C251.552 28.336 251.472 28.128 251.616 27.824ZM259.632 32.456C258.192 32.312 257.088 32.24 256.32 32.24C255.056 32.24 254.16 32.424 253.632 32.792C253.12 33.16 252.864 33.76 252.864 34.592C252.864 35.408 253.096 36.016 253.56 36.416C254.04 36.8 254.944 36.992 256.272 36.992C257.488 36.992 258.456 36.864 259.176 36.608C259.368 36.528 259.488 36.448 259.536 36.368C259.6 36.288 259.632 36.136 259.632 35.912V32.456ZM265.05 26.12C266.378 25.576 267.866 25.304 269.514 25.304C272.698 25.304 274.29 26.872 274.29 30.008V37.568C274.29 37.856 274.146 38 273.858 38H273.114C272.954 38 272.842 37.968 272.778 37.904C272.714 37.84 272.682 37.728 272.682 37.568V30.056C272.682 27.88 271.562 26.792 269.322 26.792C268.186 26.792 267.122 26.968 266.13 27.32C265.89 27.432 265.77 27.632 265.77 27.92V37.568C265.77 37.856 265.626 38 265.338 38H264.57C264.282 38 264.138 37.856 264.138 37.568V27.44C264.138 27.072 264.194 26.8 264.306 26.624C264.434 26.448 264.682 26.28 265.05 26.12ZM277.069 27.824C277.965 26.144 279.573 25.304 281.893 25.304C283.669 25.304 284.909 25.736 285.613 26.6C286.333 27.448 286.693 28.6 286.693 30.056V36.344C286.693 36.76 286.629 37.056 286.501 37.232C286.389 37.408 286.165 37.568 285.829 37.712C284.869 38.128 283.541 38.336 281.845 38.336C279.861 38.336 278.501 38.04 277.765 37.448C277.029 36.84 276.661 35.896 276.661 34.616C276.661 33.256 277.061 32.296 277.861 31.736C278.677 31.176 280.037 30.896 281.941 30.896C282.597 30.896 283.645 30.976 285.085 31.136V30.032C285.085 28.992 284.845 28.184 284.365 27.608C283.901 27.032 283.061 26.744 281.845 26.744C280.261 26.744 279.141 27.328 278.485 28.496C278.309 28.736 278.109 28.8 277.885 28.688L277.309 28.448C277.005 28.336 276.925 28.128 277.069 27.824ZM285.085 32.456C283.645 32.312 282.541 32.24 281.773 32.24C280.509 32.24 279.613 32.424 279.085 32.792C278.573 33.16 278.317 33.76 278.317 34.592C278.317 35.408 278.549 36.016 279.013 36.416C279.493 36.8 280.397 36.992 281.725 36.992C282.941 36.992 283.909 36.864 284.629 36.608C284.821 36.528 284.941 36.448 284.989 36.368C285.053 36.288 285.085 36.136 285.085 35.912V32.456Z" fill="#16171A"/>
<path d="M60 30.0386C60.0025 26.4271 57.9046 23.3031 54.6108 21.9338C54.271 21.281 49.6825 12.4258 49.6825 12.4258C48.1212 9.45714 45.2145 7.68472 41.9071 7.68472H18.0909C14.786 7.68472 11.8804 9.45526 10.3182 12.4208C9.35461 14.25 5.20091 22.1492 5.20091 22.1492C1.98873 23.5765 0.00761652 26.6167 0.0051558 30.1686L0 47.0424C0 49.9499 2.36546 52.3154 5.27297 52.3154H12.3139C15.2214 52.3154 17.5869 49.9499 17.5869 47.0424V44.6989H42.4078V47.0424C42.4078 49.9499 44.7733 52.3154 47.6808 52.3154H54.7217C57.6293 52.3154 59.9947 49.9499 59.9947 47.0424L60 30.0386ZM56.4817 34.154H47.1836C47.8417 32.2463 49.5412 30.6387 52.149 30.6387H56.4842L56.4817 34.154ZM55.6426 27.1234H52.149C49.6436 27.1234 47.3638 28.0973 45.7297 29.8659C44.2438 31.4739 43.3804 33.6719 43.3608 35.8962C43.3567 36.365 43.5401 36.816 43.8702 37.1489C44.2002 37.4819 44.6497 37.6692 45.1185 37.6692H56.1776C55.4514 39.7143 53.4977 41.1834 51.2075 41.1834H39.8455C39.8455 41.1834 23.5 41.1834 20.1597 41.1834H8.78946C7.38556 41.1834 6.0624 40.6331 5.06369 39.6337C4.49843 39.068 4.07741 38.3984 3.81834 37.6692H14.8868C15.3556 37.6692 15.805 37.4818 16.1351 37.1489C16.465 36.816 16.6484 36.365 16.6443 35.8961C16.6247 33.6718 15.7613 31.4739 14.2755 29.8659C12.6413 28.0973 10.3615 27.1234 7.85603 27.1234H4.46773C5.03932 26.3124 5.84878 25.667 6.8408 25.2715C12.0109 23.2106 20.6709 21.9802 30.0063 21.9802C33.6173 21.9802 46.2735 22.7376 52.9437 25.0569C54.1028 25.4599 55.0288 26.1857 55.6426 27.1234ZM7.85614 30.6387C10.4639 30.6387 12.1635 32.2463 12.8215 34.154H3.51766L3.52012 30.6387H7.85614ZM13.4285 14.0589C14.3855 12.242 16.0849 11.1999 18.091 11.1999H41.9073C43.9147 11.1999 45.6147 12.2431 46.5714 14.0621C46.5714 14.0621 49.8294 20.2676 50.0002 20.604C42.1973 18.8675 32.038 18.4649 30.0064 18.4649C22.5257 18.4649 15.4065 19.2437 9.98373 20.6058C9.98373 20.6058 12.4653 15.8874 13.4285 14.0589ZM14.0716 47.0424C14.0716 48.0116 13.2831 48.8001 12.3139 48.8001H5.27297C4.3038 48.8001 3.51532 48.0116 3.51532 47.0424V42.9342C5.03053 44.0787 6.8633 44.6989 8.78946 44.6989H14.0717L14.0716 47.0424ZM54.7217 48.8001H47.6808C46.7116 48.8001 45.9231 48.0116 45.9231 47.0424V44.6989H51.2075C53.1837 44.6989 55.0095 44.0423 56.4794 42.9365V47.0424C56.4794 48.0116 55.6909 48.8001 54.7217 48.8001Z" fill="black"/>
</svg>
