<svg width="14" height="12" viewBox="0 0 14 12" fill="none" xmlns="http://www.w3.org/2000/svg">
<path d="M13.298 2.06999L9.29804 0.069989C9.20542 0.023642 9.10328 -0.000488281 8.99971 -0.000488281C8.89614 -0.000488281 8.79399 0.023642 8.70137 0.069989L5.00004 1.92132L1.29804 0.069989C1.19638 0.0191872 1.08341 -0.00478098 0.969878 0.000360966C0.856344 0.00550291 0.746009 0.0395842 0.649353 0.0993679C0.552698 0.159152 0.47293 0.242653 0.417627 0.34194C0.362324 0.441228 0.333321 0.553005 0.333374 0.666656V9.33332C0.333374 9.58599 0.476041 9.81666 0.702041 9.92999L4.70204 11.93C4.79466 11.9763 4.89681 12.0005 5.00037 12.0005C5.10394 12.0005 5.20609 11.9763 5.29871 11.93L9.00004 10.0787L12.702 11.9293C12.8034 11.9806 12.9163 12.0049 13.0298 11.9999C13.1433 11.9949 13.2536 11.9607 13.35 11.9007C13.5467 11.7787 13.6667 11.5647 13.6667 11.3333V2.66666C13.6667 2.41399 13.524 2.18332 13.298 2.06999ZM5.66671 3.07866L8.33337 1.74532V8.92132L5.66671 10.2547V3.07866ZM1.66671 1.74532L4.33337 3.07866V10.2547L1.66671 8.92132V1.74532ZM12.3334 10.2547L9.66671 8.92132V1.74532L12.3334 3.07866V10.2547Z" fill="#65C23A"/>
</svg>
