<svg width="48" height="48" viewBox="0 0 48 48" fill="none" xmlns="http://www.w3.org/2000/svg">
<g clip-path="url(#clip0_113_711)">
<path d="M39.0628 28.9891C38.6272 28.9891 38.2736 28.636 38.2736 28.1999V27.8997C38.2736 26.9773 36.9576 26.0725 35.6167 26.0725H32.3904C31.9547 26.0725 31.6017 25.7199 31.6017 25.2838C31.6017 24.8477 31.9547 24.4946 32.3904 24.4946H35.6167C37.6199 24.4946 39.8516 25.8933 39.8516 27.8997V28.1999C39.8516 28.636 39.4985 28.9891 39.0628 28.9891Z" fill="white"/>
<path d="M35.9074 19.3659C35.8857 19.3659 35.8641 19.3654 35.8424 19.3636C35.4076 19.3275 35.0844 18.9469 35.1205 18.5126L35.5151 13.6967C35.5119 10.9783 33.4098 8.71415 30.826 8.71415H26.7853C24.201 8.71415 22.0989 10.9783 22.0989 13.7612L22.4903 18.5126C22.5264 18.9469 22.2032 19.3275 21.7684 19.3636C21.3368 19.3993 20.9539 19.0765 20.9178 18.6417L20.5237 13.8258C20.521 10.1083 23.331 7.13623 26.7853 7.13623H30.8255C34.2803 7.13623 37.0903 10.1083 37.0903 13.7612L36.693 18.6417C36.6591 19.0539 36.3142 19.3659 35.9074 19.3659Z" fill="white"/>
<path d="M28.8057 26.8617C27.8702 26.8617 26.9275 26.7113 26.0792 26.4264C25.6661 26.2878 25.4435 25.84 25.5826 25.4269C25.7216 25.0142 26.1686 24.793 26.5812 24.9298C27.2697 25.1609 28.0386 25.2837 28.8052 25.2837C30.5935 25.2837 32.2482 24.6363 33.1232 23.5939C34.316 22.1717 35.1174 20.1419 35.1174 18.5436V15.3638C35.1174 14.9494 35.0325 14.6726 34.8654 14.5435C34.2708 14.0803 32.3814 14.5602 30.7145 14.9833C29.1908 15.3702 27.616 15.7706 26.1889 15.7706C24.4132 15.7706 23.2177 15.1318 22.5021 14.6925C22.4967 14.869 22.4935 15.0889 22.4935 15.3638V18.5436C22.4935 19.6949 22.9224 21.1274 23.6412 22.3753C23.8588 22.7532 23.7288 23.2354 23.3513 23.4525C22.9735 23.6706 22.4913 23.541 22.2737 23.1627C21.4104 21.6633 20.9152 19.9798 20.9152 18.5436V15.3638C20.9152 14.0221 20.9454 13.2464 21.5698 12.9019C22.1265 12.59 22.6534 12.925 23.1175 13.2162C23.7342 13.6053 24.6665 14.1927 26.1889 14.1927C27.4183 14.1927 28.8964 13.8166 30.3258 13.4536C32.636 12.8672 34.6293 12.3597 35.8343 13.2974C36.4059 13.7417 36.6953 14.437 36.6953 15.3638V18.5436C36.6953 20.5157 35.7679 22.8954 34.3318 24.6079C33.148 26.0192 31.0816 26.8617 28.8057 26.8617Z" fill="white"/>
<path d="M36.0059 36.6349C35.6452 36.6349 35.3192 36.3853 35.237 36.0187C35.1418 35.5934 35.4095 35.1712 35.8348 35.0764L45.1985 32.9798C45.5461 32.9184 45.8179 32.7454 45.9994 32.4867C46.1809 32.228 46.2509 31.9143 46.1962 31.6027C46.124 31.1892 45.8337 30.8415 45.44 30.6953C45.031 30.544 44.8224 30.0903 44.9741 29.6812C45.1258 29.2727 45.5813 29.0623 45.9876 29.2158C46.9059 29.5557 47.5818 30.3661 47.7507 31.33C47.8784 32.0569 47.715 32.7892 47.2911 33.3929C46.8676 33.9969 46.2337 34.3992 45.5068 34.527L36.1793 36.616C36.1215 36.6286 36.0632 36.6349 36.0059 36.6349Z" fill="white"/>
<path d="M25.3311 41.0639H19.3373C19.2799 41.0639 19.2226 41.058 19.1661 41.0454L12.0653 39.4674C11.64 39.3726 11.3714 38.9509 11.4662 38.5261C11.5605 38.1008 11.9813 37.8353 12.4071 37.9265L19.4239 39.486H25.3311C28.4102 39.486 31.4306 38.4263 33.8356 36.5026C33.8568 36.4854 33.879 36.4701 33.9015 36.4556L45.5799 28.9462C45.6179 28.9213 45.6576 28.9006 45.6987 28.883C45.9899 28.7597 46.2152 28.5299 46.3339 28.2373C46.4526 27.9439 46.4495 27.6215 46.3262 27.3312C46.0711 26.7299 45.375 26.4486 44.7745 26.7037L33.0514 31.5368C32.9561 31.576 32.8536 31.5959 32.7507 31.5959H17.7593C17.4749 31.5959 17.2126 31.4433 17.0726 31.1959C16.9327 30.948 16.9367 30.6442 17.083 30.4008L19.4501 26.4558C19.5923 26.2188 19.8492 26.073 20.1264 26.073H23.2827C24.7505 26.073 25.9875 25.0662 26.3388 23.7058H18.0176L7.25432 31.5995C6.90217 31.8573 6.4096 31.7797 6.15136 31.4298C5.89401 31.0785 5.96986 30.5846 6.32111 30.3263L17.293 22.2805C17.428 22.1812 17.5914 22.1279 17.7593 22.1279H27.2273C27.663 22.1279 28.0165 22.481 28.0165 22.9171C28.0165 25.5276 25.8927 27.6513 23.2823 27.6513H20.5734L19.1531 30.0184H32.5945L44.1659 25.2481C45.5605 24.6553 47.1845 25.3136 47.7791 26.715C48.0671 27.394 48.0739 28.1443 47.7971 28.8288C47.5299 29.4907 47.0287 30.013 46.3822 30.3074L34.7896 37.7613C32.1105 39.8909 28.7538 41.0639 25.3311 41.0639Z" fill="white"/>
<path d="M8.53697 45.529C8.49498 45.529 8.45254 45.5258 8.41055 45.5191C8.20378 45.4852 8.01912 45.371 7.89677 45.2017L0.14939 34.4542C0.0265879 34.2849 -0.0235263 34.0727 0.0103346 33.8664C0.043744 33.6601 0.157968 33.4754 0.327725 33.3526L5.4475 29.6618C5.80191 29.4098 6.29447 29.4875 6.54911 29.8405L14.2965 40.5871C14.5516 40.9406 14.4717 41.4336 14.1182 41.6887L8.99838 45.3805C8.86339 45.4775 8.70131 45.529 8.53697 45.529ZM1.89075 34.1716L8.71575 43.6382L12.5556 40.8697L5.73058 31.4031L1.89075 34.1716Z" fill="white"/>
<path d="M10.658 40.2752C10.658 41.1465 9.95147 41.8531 9.08012 41.8531C8.20876 41.8531 7.5022 41.1465 7.5022 40.2752C7.5022 39.4033 8.20876 38.6968 9.08012 38.6968C9.95147 38.6968 10.658 39.4033 10.658 40.2752Z" fill="white"/>
<path d="M28.8057 4.76892C28.3695 4.76892 28.0165 4.41631 28.0165 3.98018V0.82389C28.0165 0.387761 28.3695 0.0351562 28.8057 0.0351562C29.2413 0.0351562 29.5944 0.387761 29.5944 0.82389V3.98018C29.5944 4.41631 29.2413 4.76892 28.8057 4.76892Z" fill="white"/>
<path d="M31.9616 4.76908C31.7598 4.76908 31.558 4.69233 31.404 4.53792C31.0956 4.23002 31.0956 3.73068 31.404 3.42232L34.1652 0.660619C34.4736 0.35271 34.9729 0.35271 35.2808 0.660619C35.5892 0.96898 35.5892 1.46832 35.2808 1.77668L32.5196 4.53792C32.3652 4.69233 32.1638 4.76908 31.9616 4.76908Z" fill="white"/>
<path d="M25.6494 4.76902C25.4476 4.76902 25.2457 4.69227 25.0918 4.53786L22.7247 2.17076C22.4163 1.86285 22.4163 1.36351 22.7247 1.05515C23.0326 0.747242 23.5319 0.747242 23.8403 1.05515L26.2074 3.42226C26.5153 3.73062 26.5153 4.22995 26.2074 4.53786C26.053 4.69227 25.8512 4.76902 25.6494 4.76902Z" fill="white"/>
</g>
<defs>
<clipPath id="clip0_113_711">
<rect width="48" height="48" fill="white"/>
</clipPath>
</defs>
</svg>
