<svg width="48" height="36" viewBox="0 0 48 36" fill="none" xmlns="http://www.w3.org/2000/svg">
<path d="M0.419906 18.0794L4.13559 20.2247C4.50825 20.4399 4.96116 20.3613 5.24212 20.0774L8.01769 21.6799C7.44553 23.4975 8.70244 25.3625 10.5925 25.5271C10.176 27.0913 11.0927 28.7266 12.6908 29.1549C13.1207 29.2701 13.5723 29.2902 14.0179 29.2043C13.8473 30.9488 15.2226 32.4539 16.9739 32.4539C17.5129 32.4539 18.028 32.3051 18.4522 32.057C18.5362 33.6157 19.8285 34.8577 21.418 34.8577C21.9208 34.8577 22.4301 34.7299 22.8959 34.4609C23.5364 34.0912 23.6001 34.0602 23.7629 33.9426L25.4192 34.8988C26.1211 35.3041 26.972 35.4093 27.7534 35.192C29.1042 34.8163 29.9534 33.5961 29.9062 32.2631C31.3183 33.0327 33.164 32.5708 33.9665 31.1178C34.2407 30.6213 34.3555 30.0761 34.328 29.543C34.9299 29.7681 35.5793 29.7918 36.2005 29.6054C37.7988 29.1254 38.7305 27.3708 38.1052 25.7071C38.9193 25.5488 39.6636 25.0526 40.1097 24.2797C40.1167 24.2675 40.1234 24.2551 40.1297 24.2426C40.5555 23.391 40.539 22.4047 40.1672 21.573L42.7577 20.0774C43.0395 20.3622 43.4926 20.4393 43.8641 20.2248L47.5797 18.0796C47.8388 17.9301 47.9998 17.6514 47.9998 17.3522V1.53791C47.9998 0.892913 47.2994 0.487913 46.7401 0.810601L36.1765 6.90951C35.8006 7.12654 35.6466 7.56022 35.7508 7.94141L32.9503 9.55832C32.7238 9.68919 32.5745 9.90294 32.5183 10.1395C31.5759 10.6739 30.4107 10.6702 29.4715 10.1279L26.3702 8.33741C24.973 7.53079 23.2372 7.53069 21.8399 8.33741L17.5894 10.7914C16.851 10.7427 16.1565 10.5287 15.4812 10.1397C15.4252 9.90313 15.2757 9.68919 15.049 9.55822L12.2486 7.94141C12.3527 7.56097 12.1995 7.12682 11.823 6.90951L8.61834 5.05935C8.28206 4.8651 7.85203 4.98041 7.65787 5.31669C7.46372 5.65297 7.57894 6.08301 7.91522 6.27716L10.6941 7.88151L4.41309 18.7611L1.40625 17.0251V2.51901L5.01431 4.60213C5.3505 4.79629 5.78062 4.68107 5.97478 4.34479C6.16894 4.00851 6.05372 3.57847 5.71744 3.38432L1.25962 0.810506C0.701062 0.488194 0 0.89235 0 1.53791V17.3522C0 17.6514 0.160969 17.9301 0.419906 18.0794ZM9.49519 23.3531C9.06525 22.6083 9.32137 21.6526 10.066 21.2227L12.0777 20.0612C12.8225 19.6312 13.7782 19.8874 14.2081 20.6321C14.638 21.3767 14.3819 22.3325 13.6372 22.7624C11.7403 23.8576 13.5468 22.8147 11.6256 23.9239C10.8809 24.3538 9.92522 24.0978 9.49519 23.3531ZM13.0549 27.7966C12.2224 27.5736 11.729 26.7192 11.9521 25.8866C12.0599 25.4842 12.318 25.1479 12.6787 24.9396C13.4984 24.4663 13.1839 24.6479 13.8756 24.2487C14.6201 23.8201 15.5745 24.0765 16.0041 24.8205C16.434 25.5652 16.1779 26.521 15.4332 26.9509L14.2382 27.6408C13.8775 27.849 13.4572 27.9044 13.0549 27.7966ZM15.6185 30.2686C15.1885 29.524 15.4447 28.5682 16.1893 28.1383L17.2677 27.5157C17.629 27.3071 18.0493 27.2522 18.4511 27.3598C19.2837 27.583 19.777 28.4372 19.5539 29.2699C19.4492 29.6607 19.1977 30.003 18.8272 30.2169L17.7488 30.8396C17.0041 31.2695 16.0485 31.0133 15.6185 30.2686ZM22.8047 32.8901L22.1929 33.2433C21.4481 33.6731 20.4924 33.4171 20.0625 32.6725C19.6312 31.9254 19.891 30.9707 20.6333 30.5421L21.2452 30.1888C21.9946 29.7561 22.9483 30.0198 23.3755 30.7597C23.8055 31.5043 23.5493 32.46 22.8047 32.8901ZM36.4282 9.17432L39.5327 14.5513C39.7269 14.8876 40.157 15.0029 40.4932 14.8087C40.8294 14.6145 40.9447 14.1845 40.7505 13.8482L37.3056 7.88151L46.5937 2.51901V17.0251L43.5869 18.7611L42.4235 16.7459C42.2293 16.4096 41.7993 16.2943 41.463 16.4886C41.1267 16.6828 41.0115 17.1128 41.2057 17.4491L42.0287 18.8746L39.6802 20.2305L34.0796 10.5301L36.4282 9.17432ZM16.2084 11.9697C15.1162 13.6749 16.0087 15.9218 17.9352 16.438C18.7004 16.643 19.4997 16.5378 20.1856 16.1417L24.5677 13.6124C24.6247 13.5794 24.6956 13.5795 24.7526 13.6124L26.9473 14.8796C27.2834 15.0737 27.7136 14.9584 27.9078 14.6222C28.1019 14.2859 27.9867 13.8559 27.6504 13.6618L25.4558 12.3947C24.9652 12.1113 24.3554 12.1114 23.8647 12.3946L19.4827 14.9239C18.7378 15.3539 17.7822 15.0977 17.3523 14.3531C16.9223 13.6084 17.1785 12.6527 17.9231 12.2227C27.6397 6.61288 18.0919 12.1252 22.5433 9.55522C23.5068 8.99901 24.7038 8.99891 25.6673 9.55522L28.7687 11.3458C30.0692 12.0967 31.6672 12.1397 33.0013 11.4749L37.5705 19.3891L30.5797 15.353C30.2434 15.1588 29.8132 15.2741 29.6192 15.6103C29.425 15.9466 29.5402 16.3767 29.8765 16.5708L38.2001 21.3764C38.9473 21.8078 39.2561 22.8194 38.8814 23.5949C38.4466 24.3256 37.5005 24.5741 36.7617 24.1476C36.6539 24.0758 37.6027 24.6331 31.7428 21.2499C31.4065 21.0556 30.9765 21.1708 30.7823 21.5072C30.5882 21.8435 30.7034 22.2735 31.0397 22.4677C31.0895 22.4965 36.06 25.3662 36.1275 25.4052C36.8151 25.8021 37.096 26.7374 36.7373 27.4548C36.3282 28.2729 35.3605 28.5639 34.568 28.1064L32.8541 27.1169C32.8537 27.1168 32.8534 27.1165 32.853 27.1163L29.4801 25.1689C29.1437 24.9746 28.7137 25.09 28.5196 25.4263C28.3254 25.7625 28.4407 26.1926 28.7769 26.3867L32.1499 28.3341C32.8807 28.756 33.1434 29.6998 32.7357 30.438C32.3128 31.2036 31.3038 31.4473 30.5463 31.0099C30.4317 30.9437 27.2583 29.1115 27.2175 29.088C26.8811 28.8938 26.4511 29.0091 26.257 29.3454C26.0629 29.6817 26.1781 30.1117 26.5144 30.3058L27.7262 31.0055C28.4784 31.448 28.7093 32.3898 28.312 33.1094C27.8832 33.8857 26.8691 34.1122 26.1226 33.6812L24.6842 32.8508C25.106 31.9922 25.1066 30.9455 24.5935 30.0567C23.8641 28.7931 22.3387 28.2694 21.0126 28.7518C20.9478 27.0227 19.3814 25.6605 17.5996 25.9331C17.7629 24.5023 16.8746 23.168 15.4987 22.7592C15.9383 21.894 15.9464 20.8303 15.426 19.9291C14.6083 18.5128 12.7909 18.026 11.3747 18.8436L10.4295 19.3893L14.9962 11.4794C15.3825 11.6854 15.7894 11.8497 16.2084 11.9697ZM8.31984 20.2306L5.97131 18.8747L11.5718 9.17432L13.9204 10.5302L8.31984 20.2306Z" fill="white"/>
</svg>
