<svg width="43" height="43" viewBox="0 0 43 43" fill="none" xmlns="http://www.w3.org/2000/svg">
<path fill-rule="evenodd" clip-rule="evenodd" d="M19.5 0.375C18.6716 0.375 18 1.04659 18 1.875V4.125C18 4.95341 18.6716 5.625 19.5 5.625H30.75C31.5784 5.625 32.25 4.95341 32.25 4.125V1.875C32.25 1.04659 31.5784 0.375 30.75 0.375H19.5ZM19.5 1.875H30.75V4.125H19.5V1.875Z" fill="white"/>
<path d="M23.625 6.1875C24.0393 6.1875 24.375 6.52328 24.375 6.9375V7.59731C24.375 8.18479 23.9275 8.65879 23.3639 8.71999C18.7677 9.21896 14.7494 11.6504 12.14 15.1875H17.25C17.6642 15.1875 18 15.5233 18 15.9375C18 16.3517 17.6642 16.6875 17.25 16.6875H4.6875C4.27328 16.6875 3.9375 16.3517 3.9375 15.9375C3.9375 15.5233 4.27328 15.1875 4.6875 15.1875H10.3184C10.325 15.1761 10.332 15.1648 10.3392 15.1536C13.0942 10.9171 17.6226 7.93684 22.875 7.26731V6.9375C22.875 6.52328 23.2108 6.1875 23.625 6.1875Z" fill="white"/>
<path d="M26.625 6.1875C27.0393 6.1875 27.375 6.52328 27.375 6.9375V7.26731C30.7122 7.69271 33.7577 9.05104 36.2419 11.0725L37.1798 10.1346L36.7822 9.73688C36.4894 9.44396 36.4894 8.9691 36.7822 8.67623C37.0751 8.38331 37.5499 8.38331 37.8428 8.67623L39.699 10.5324C39.9919 10.8253 39.9919 11.3001 39.699 11.593C39.4061 11.8859 38.9314 11.8859 38.6385 11.593L38.2406 11.1953L37.3661 12.0696C40.6856 15.2746 42.75 19.7711 42.75 24.75C42.75 34.484 34.8589 42.375 25.125 42.375H11.625C11.2108 42.375 10.875 42.0394 10.875 41.625C10.875 41.2106 11.2108 40.875 11.625 40.875H25.125C34.0306 40.875 41.25 33.6556 41.25 24.75C41.25 16.4399 34.9631 9.59715 26.8867 8.72003C26.3246 8.65901 25.875 8.18625 25.875 7.59731V6.9375C25.875 6.52328 26.2108 6.1875 26.625 6.1875Z" fill="white"/>
<path d="M9.64492 17.9792C10.0314 18.1282 10.2239 18.5624 10.0748 18.9488C9.66184 20.0194 9.35985 21.1452 9.18296 22.3124H14.25C14.6642 22.3124 15 22.6482 15 23.0624C15 23.4766 14.6642 23.8124 14.25 23.8124H0.75C0.335786 23.8124 0 23.4766 0 23.0624C0 22.6482 0.335786 22.3124 0.75 22.3124H7.66729C7.85501 20.9561 8.19709 19.6488 8.67529 18.409C8.82435 18.0225 9.25849 17.8301 9.64492 17.9792Z" fill="white"/>
<path d="M8.23462 24.9386C8.64821 24.916 9.00187 25.2329 9.02452 25.6465C9.08899 26.8237 9.2796 27.9667 9.58297 29.0625H15.375C15.7892 29.0625 16.125 29.3983 16.125 29.8125C16.125 30.2267 15.7892 30.5625 15.375 30.5625H3.1875C2.77328 30.5625 2.4375 30.2267 2.4375 29.8125C2.4375 29.3983 2.77328 29.0625 3.1875 29.0625H8.03164C7.76104 27.9867 7.58936 26.8719 7.52677 25.7285C7.50413 25.3149 7.82104 24.9613 8.23462 24.9386Z" fill="white"/>
<path d="M24.9375 37.5C24.5233 37.5 24.1875 37.8356 24.1875 38.25C24.1875 38.6644 24.5233 39 24.9375 39C32.704 39 39 32.704 39 24.9375C39 24.5233 38.6644 24.1875 38.25 24.1875C37.8356 24.1875 37.5 24.5233 37.5 24.9375C37.5 31.8756 31.8756 37.5 24.9375 37.5Z" fill="white"/>
<path fill-rule="evenodd" clip-rule="evenodd" d="M25.125 27.375C26.7819 27.375 28.125 26.0319 28.125 24.375C28.125 23.8743 28.0023 23.4021 27.7854 22.9871L34.2654 16.8573C34.5664 16.5727 34.5795 16.098 34.2948 15.7971C34.0102 15.4962 33.5355 15.483 33.2346 15.7677L26.7806 21.8728C26.3061 21.5582 25.737 21.375 25.125 21.375C23.4681 21.375 22.125 22.7181 22.125 24.375C22.125 26.0319 23.4681 27.375 25.125 27.375ZM25.125 25.875C25.9534 25.875 26.625 25.2034 26.625 24.375C26.625 23.5466 25.9534 22.875 25.125 22.875C24.2966 22.875 23.625 23.5466 23.625 24.375C23.625 25.2034 24.2966 25.875 25.125 25.875Z" fill="white"/>
</svg>
