<svg width="48" height="48" viewBox="0 0 48 48" fill="none" xmlns="http://www.w3.org/2000/svg">
<g clip-path="url(#clip0_125_839)">
<path d="M42.1237 8.89495C41.2522 9.59658 40.3065 10.2131 39.3067 10.7235C40.0507 12.9768 40.5078 15.6236 40.5825 18.462H46.482C46.2907 14.7948 44.7277 11.4993 42.294 9.06483C42.2411 9.01158 42.1773 8.94783 42.1237 8.89495ZM46.4823 19.9608H40.5828C40.5191 22.6927 40.0833 25.2438 39.3817 27.444C39.3603 27.5295 39.3281 27.6142 39.2966 27.6993C40.3065 28.2093 41.2522 28.8262 42.1237 29.5278C43.0166 28.6665 43.8033 27.678 44.4412 26.6148C45.6322 24.6483 46.3548 22.3841 46.4823 19.9608ZM40.9762 30.5265C40.2855 29.9846 39.5516 29.517 38.7761 29.1022C38.0321 30.8666 37.0856 32.3231 36.012 33.3435C35.7146 33.6307 35.2466 33.6198 34.9594 33.3221C34.6721 33.0243 34.6833 32.5462 34.9807 32.2593C35.9268 31.3661 36.7459 30.0798 37.4152 28.4857C37.3515 28.4643 37.2877 28.4433 37.224 28.4115C35.8732 27.9015 34.4175 27.5928 32.8976 27.5186V27.7203C32.8976 28.1347 32.568 28.4752 32.1536 28.4752C31.7392 28.4752 31.3984 28.1351 31.3984 27.7203V26.7427V19.9608H27.8797C27.4654 19.9608 27.1357 19.6207 27.1357 19.206C27.1357 18.7912 27.4654 18.462 27.8797 18.462H31.3984V12.4136C30.2186 12.3498 29.0599 12.1691 27.9544 11.8605C27.4125 11.712 26.8916 11.5417 26.3812 11.3396C25.6372 13.6038 25.2124 16.3038 25.2124 19.206C25.2124 19.6203 24.8719 19.9608 24.4571 19.9608C24.0532 19.9608 23.7131 19.6207 23.7131 19.206C23.7131 16.0807 24.1912 13.1681 24.999 10.7235C24.6802 10.5532 24.372 10.3833 24.0637 10.2022C23.7026 9.98995 23.5856 9.53283 23.7982 9.18183C24.0109 8.82033 24.4684 8.70333 24.819 8.91595C25.0526 9.05395 25.2862 9.19233 25.5307 9.30933C25.6905 8.92645 25.8604 8.55445 26.0516 8.19295C26.5725 7.15158 27.189 6.24745 27.8584 5.51395C26.6149 5.90733 25.4456 6.46008 24.372 7.1512C24.021 7.37433 23.5642 7.2682 23.3407 6.9277C23.1176 6.5767 23.2132 6.10908 23.5639 5.88595C24.8186 5.0782 26.1997 4.4407 27.6667 4.00457C29.0914 3.5902 30.6007 3.3667 32.1529 3.3667C36.5321 3.3667 40.4865 5.13108 43.3567 8.00133C46.2262 10.8712 48.0018 14.8365 48.0018 19.2052C48.0018 22.2026 47.1727 24.9982 45.7271 27.3795C44.2387 29.8455 42.1023 31.8761 39.5411 33.2261C39.1691 33.4278 38.7221 33.2793 38.5312 32.9178C38.3403 32.5563 38.4776 32.0992 38.8395 31.9083C39.4878 31.5686 41.1146 30.4736 40.9762 30.5265ZM36.4474 5.51433C37.1175 6.24783 37.7231 7.15158 38.2541 8.19333C38.4348 8.55483 38.6051 8.92683 38.7757 9.3097C39.5512 8.90583 40.2851 8.42733 40.9758 7.89558C39.6363 6.85383 38.1056 6.03558 36.4474 5.51433ZM37.9256 27.0825L37.9571 26.9973C38.6164 24.9457 39.0198 22.5435 39.0843 19.9605H32.8976V26.0088C34.5982 26.094 36.2351 26.4446 37.755 27.0183C37.8187 27.0397 37.872 27.0611 37.9256 27.0825ZM39.0843 18.4616C39.0198 15.8358 38.6055 13.4122 37.9256 11.3396C37.872 11.361 37.8082 11.382 37.755 11.4033C36.2351 11.9775 34.5982 12.3285 32.8976 12.4132V18.4616H39.0843ZM32.8976 4.95107V10.9038C34.4175 10.8296 35.8736 10.5105 37.224 10.0005C37.2877 9.97908 37.3515 9.95808 37.404 9.9367C37.2555 9.5647 37.0957 9.2137 36.9259 8.87358C35.8309 6.73683 34.4284 5.31258 32.8976 4.95107ZM31.3984 10.9038V4.95107C29.8676 5.31258 28.4651 6.73683 27.3802 8.87358C27.2104 9.2137 27.0506 9.5647 26.8916 9.9367C27.3697 10.1171 27.8482 10.2873 28.3477 10.4148C29.3254 10.6912 30.3457 10.851 31.3984 10.9038Z" fill="white"/>
<path d="M9.25649 21.5445L10.7659 26.2958L13.6571 24.1913L10.4149 20.5452L9.25649 21.5445ZM11.0632 19.0144L14.7622 23.1814L18.4507 19.0144L18.4612 19.0039C18.7267 18.6852 19.2052 18.6529 19.5135 18.9297L21.5227 20.6625L26.3381 22.767C27.3371 23.2028 28.1239 23.8939 28.6657 24.744C29.2189 25.6155 29.5162 26.6359 29.5162 27.7204V30.4523C29.5162 30.8667 29.1765 31.2072 28.7617 31.2072C28.3575 31.2072 28.0177 30.867 28.0177 30.4523V27.7204C28.0177 26.9127 27.8055 26.1683 27.4121 25.5522C27.0187 24.9462 26.4555 24.4572 25.743 24.138L21.5764 22.3204L19.8544 27.7414C19.7055 28.2304 19.1104 28.4112 18.7061 28.1134L15.5066 25.7854V31.0152C15.5066 31.4295 15.1774 31.77 14.7626 31.77C14.3482 31.77 14.0081 31.4299 14.0081 31.0152V25.7858L10.8191 28.1138C10.8191 28.1138 10.617 28.2199 10.596 28.2199C10.2026 28.3478 9.78786 28.1348 9.66036 27.7418L7.93836 22.3208L3.77137 24.1384C3.05924 24.4575 2.49599 24.9462 2.11312 25.5525C1.70924 26.169 1.49662 26.913 1.49662 27.7208V40.0939C1.49662 40.5083 1.16699 40.8488 0.752616 40.8488C0.338242 40.8488 -0.0022583 40.5087 -0.0022583 40.0939V27.7204C-0.0022583 26.6359 0.295492 25.6159 0.848241 24.744C1.39049 23.8935 2.18774 23.2028 3.17624 22.767L7.99124 20.6625L10.0001 18.9297C10.3084 18.6533 10.7869 18.6855 11.0527 19.0039L11.0632 19.0144ZM5.79074 33.4924C5.79074 33.078 6.13087 32.7484 6.53474 32.7484C6.94911 32.7484 7.28961 33.078 7.28961 33.4924V40.0935C7.28961 40.5079 6.94949 40.8484 6.53474 40.8484C6.13087 40.8484 5.79074 40.5083 5.79074 40.0935V33.4924ZM19.0995 20.5452L15.8572 24.1913L18.7485 26.2958L20.2579 21.5445L19.0995 20.5452Z" fill="white"/>
<path d="M31.2495 32.2699H14.6246C13.9867 32.2699 13.3702 32.8226 13.2641 33.4387L11.1592 45.4084C11.0531 46.014 11.4146 46.503 12.0521 46.503H28.305C29.049 46.503 29.7611 45.8655 29.8886 45.1425L31.9833 33.1837C31.9935 33.1305 32.0047 33.0667 32.0047 33.003C32.0047 32.5564 31.6852 32.2699 31.2495 32.2699ZM22.4587 38.5942C22.8731 38.5942 23.2136 38.9344 23.2136 39.3491C23.2136 39.7639 22.8735 40.0931 22.4587 40.0931C22.044 40.0931 21.7147 39.7635 21.7147 39.3491C21.7147 38.9347 22.044 38.5942 22.4587 38.5942ZM14.6246 30.771H31.2495C31.3878 30.771 31.5255 30.7815 31.6638 30.8134C32.7588 31.0046 33.5028 31.9084 33.5028 33.003C33.5028 33.1519 33.4815 33.2902 33.4605 33.4387L31.3665 45.4084C31.1107 46.8326 29.7611 48.0019 28.305 48.0019H12.0521C10.6916 48.0019 9.64984 46.971 9.64984 45.6101C9.64984 45.4616 9.66034 45.3124 9.68172 45.1425L11.7862 33.1837C12.0202 31.8551 13.2742 30.771 14.6246 30.771Z" fill="white"/>
<path d="M10.734 42.7612C11.1484 42.7612 11.4889 43.0909 11.4889 43.5052C11.4889 43.5585 11.4784 43.6114 11.4675 43.6646L11.1592 45.408C11.1487 45.4717 11.1487 45.546 11.1487 45.6097C11.1487 45.8437 11.2125 46.0455 11.34 46.1947C11.457 46.3432 11.6377 46.4389 11.8609 46.4816C11.9141 46.4921 11.9779 46.4921 12.0416 46.503L12.0521 48.0019H5.02535C4.53635 48.0019 4.03685 47.8639 3.63298 47.598C3.2291 47.3321 2.92085 46.9496 2.79335 46.4392L2.1131 43.686C2.01748 43.2821 2.26198 42.8782 2.66585 42.7826C2.7191 42.7612 2.78285 42.7612 2.84623 42.7612H10.734ZM9.8411 44.2601H3.79235L4.24948 46.0882C4.27085 46.1947 4.3451 46.2799 4.4516 46.3436C4.61098 46.4497 4.81273 46.503 5.02535 46.503H9.80885C9.70235 46.227 9.64948 45.9292 9.64948 45.6101C9.64948 45.4616 9.65998 45.3124 9.68135 45.1425L9.8411 44.2601Z" fill="white"/>
<path d="M11.4885 17.6537L11.2335 19.5883C11.1697 20.0027 10.7977 20.2899 10.3935 20.2367C9.97913 20.1729 9.69188 19.8009 9.74513 19.3862L10.1385 16.5163L9.94725 16.3464C9.23512 15.7191 8.69288 14.9642 8.33138 14.1141C7.95938 13.2636 7.77863 12.3283 7.77863 11.3289V6.78993C7.77863 4.75968 8.48025 3.06918 9.71325 1.86806C10.9358 0.677434 12.6791 -0.00244141 14.7623 -0.00244141C16.8352 -0.00244141 18.5786 0.677434 19.8011 1.86806C21.0341 3.06918 21.7358 4.75968 21.7358 6.78993V11.3289C21.7358 12.2856 21.5655 13.2317 21.183 14.1141C20.8215 14.9646 20.2793 15.7191 19.5671 16.3464L19.3759 16.5163L19.7692 19.3862C19.8225 19.8006 19.5352 20.1729 19.1314 20.2367C18.717 20.2903 18.345 20.0031 18.2917 19.5883L18.0262 17.6537C17.6861 17.8877 17.346 18.0681 16.9845 18.2064C15.7406 18.6958 13.7741 18.6958 12.5306 18.2064C12.1688 18.0684 11.8286 17.8877 11.4885 17.6537ZM9.29888 6.30093C10.0748 6.55631 11.7439 6.79031 12.6049 4.67456C12.7642 4.29168 13.2 4.11131 13.5829 4.27068C13.7955 4.35581 13.9121 4.50468 13.9973 4.70643C14.0078 4.71693 15.3686 8.61843 20.2369 7.39593V6.79031C20.2369 5.18531 19.7055 3.85631 18.7594 2.94206C17.8133 2.01731 16.4314 1.49606 14.7626 1.49606C13.083 1.49606 11.7011 2.01731 10.755 2.94168C9.91538 3.76031 9.3945 4.90856 9.29888 6.30093ZM20.2369 8.93718C16.3357 9.78768 14.2522 7.88456 13.2847 6.50306C12.0622 8.15081 10.3721 8.10806 9.27713 7.84218V11.3289C9.27713 12.1262 9.426 12.8702 9.70238 13.5189C9.97875 14.1673 10.3931 14.7519 10.9459 15.2301L11.8496 16.0378C12.243 16.3888 12.6469 16.6434 13.0826 16.8137C13.9541 17.1647 15.5595 17.1647 16.431 16.8137C16.8668 16.6434 17.2706 16.3884 17.6745 16.0378L18.5782 15.2301C19.1201 14.7519 19.503 14.2307 19.7794 13.5823C20.0981 12.8912 20.2365 12.0834 20.2365 11.3286V8.93718H20.2369Z" fill="white"/>
</g>
<defs>
<clipPath id="clip0_125_839">
<rect width="48" height="48" fill="white"/>
</clipPath>
</defs>
</svg>
