<svg width="48" height="48" viewBox="0 0 48 48" fill="none" xmlns="http://www.w3.org/2000/svg">
<path d="M8 27.024C7.56266 26.6245 6.99232 26.4021 6.4 26.4H2.4C1.07452 26.4 0 27.4745 0 28.8V45.6C0 46.9255 1.07452 48 2.4 48H6.4C7.07879 47.9979 7.72461 47.707 8.176 47.2H28.24C29.4139 47.2005 30.5653 46.8778 31.568 46.2672L46.56 37.1408C47.2693 36.713 47.7688 36.0095 47.9389 35.1988C48.109 34.3881 47.9343 33.5432 47.4568 32.8664C47.4404 32.8384 47.4219 32.8117 47.4016 32.7864C46.6272 31.7583 45.284 31.3378 44.0616 31.7408L41.6 32.56V22.4H44C44.2908 22.4 44.5587 22.2422 44.6997 21.9878C44.8407 21.7335 44.8325 21.4226 44.6784 21.176L40.2704 14.128C40.1189 13.8851 39.8493 13.7414 39.5632 13.7511C39.2771 13.7608 39.0178 13.9224 38.8832 14.1751C38.7485 14.4278 38.7589 14.7331 38.9104 14.976L42.56 20.8H20.4432L13.44 9.6H25.6C26.0418 9.6 26.4 9.24183 26.4 8.8C26.4 8.35817 26.0418 8 25.6 8H12C11.7251 8.00189 11.4705 8.14478 11.3256 8.3784H11.3216L3.3216 21.1784C3.16874 21.4249 3.16128 21.7348 3.3021 21.9884C3.44292 22.242 3.70995 22.3995 4 22.4H8V27.024ZM6.4 46.4H2.4C1.95817 46.4 1.6 46.0418 1.6 45.6V28.8C1.6 28.3582 1.95817 28 2.4 28H6.4C6.84183 28 7.2 28.3582 7.2 28.8V45.6C7.2 46.0418 6.84183 46.4 6.4 46.4ZM44.56 33.256C45.1087 33.0746 45.7125 33.2491 46.08 33.6952C46.092 33.7152 46.1048 33.7336 46.1184 33.7528C46.3552 34.066 46.4477 34.4651 46.3727 34.8505C46.2978 35.2359 46.0625 35.5712 45.7256 35.7728L30.736 44.9008C29.9839 45.3584 29.1204 45.6003 28.24 45.6H8.8V29.6H10.24C11.7161 29.6017 13.148 30.104 14.3016 31.0248C15.7386 32.1712 17.5217 32.797 19.36 32.8H23.544C24.8134 32.7958 25.9634 33.5476 26.4688 34.712C26.7854 35.3955 26.7006 36.1978 26.248 36.8H21.376C19.7964 36.801 18.2524 37.2686 16.9376 38.144L16.3536 38.536C15.9869 38.7826 15.8895 39.2797 16.136 39.6464C16.3825 40.0131 16.8797 40.1106 17.2464 39.864L17.8256 39.4752C18.8772 38.7746 20.1124 38.4005 21.376 38.4H28.488C28.9195 38.4006 29.3482 38.33 29.7568 38.1912L44.56 33.256ZM40 33.0896L29.2448 36.6752C29.0011 36.7581 28.7454 36.8002 28.488 36.8H28.052C28.3584 35.9188 28.3215 34.9545 27.9488 34.0992C27.3732 32.7562 26.2121 31.7523 24.8 31.3768V22.4H40V33.0896ZM20 22.4H23.2V31.2H19.36C17.8839 31.1983 16.452 30.6961 15.2984 29.7752C13.8614 28.6288 12.0783 28.003 10.24 28H9.6V21.8296L14.4 14.1496L19.3216 22.024C19.4678 22.2579 19.7242 22.4 20 22.4ZM12 10.3096L13.4568 12.64L8.3568 20.8H5.44L12 10.3096Z" fill="white"/>
<path d="M35.9928 7.21977e-08C35.5599 -0.000182008 35.2054 0.344058 35.1928 0.7768V0.7936V0.8C35.1928 1.0944 35.12 8 28.7848 8C28.343 8 27.9848 8.35817 27.9848 8.8C27.9848 9.24183 28.343 9.6 28.7848 9.6C35.0952 9.6 35.1912 16.5072 35.1928 16.8C35.1868 17.2418 35.5402 17.6048 35.982 17.6108C36.4238 17.6168 36.7868 17.2634 36.7928 16.8216V16.8048V16.8C36.7928 16.5056 36.8656 9.6 43.2 9.6C43.6418 9.6 44 9.24183 44 8.8C44 8.35817 43.6418 8 43.2 8C36.8904 8 36.7936 1.0928 36.7928 0.8C36.7928 0.358172 36.4346 7.21977e-08 35.9928 7.21977e-08ZM39.5536 8.8C37.9154 9.66418 36.6492 11.0968 35.9928 12.8288C35.3365 11.0968 34.0702 9.66418 32.432 8.8C34.0702 7.93583 35.3365 6.50316 35.9928 4.7712C36.6492 6.50316 37.9154 7.93583 39.5536 8.8Z" fill="white"/>
<path d="M37.6 25.6001C37.1582 25.6001 36.8 25.9583 36.8 26.4001V30.6233L32.5472 32.0409C32.1275 32.1805 31.9004 32.634 32.04 33.0537C32.1796 33.4734 32.6331 33.7005 33.0528 33.5609L37.8528 31.9609C38.1802 31.8519 38.4008 31.5452 38.4 31.2001V26.4001C38.4 25.9583 38.0418 25.6001 37.6 25.6001Z" fill="white"/>
</svg>
