<svg width="48" height="48" viewBox="0 0 48 48" fill="none" xmlns="http://www.w3.org/2000/svg">
<path d="M47.2767 46.5371H0.759287C-0.174077 46.5371 -0.22613 47.973 0.759287 47.982H47.2767C48.2154 47.9766 48.2244 46.5389 47.2767 46.5371Z" fill="white"/>
<path d="M47.2767 0.0177599H0.759273C0.663637 0.0156075 0.568535 0.0325884 0.479553 0.0677049C0.390572 0.102822 0.309505 0.155366 0.241115 0.222251C0.172724 0.289136 0.11839 0.369014 0.0813021 0.457193C0.0442146 0.545371 0.0251223 0.640071 0.0251465 0.735732V13.3361C0.0270177 13.5303 0.104964 13.7159 0.242236 13.8532C0.379507 13.9904 0.56515 14.0684 0.759273 14.0703C0.950865 14.0651 1.13294 13.9856 1.26695 13.8486C1.40096 13.7116 1.47638 13.5278 1.47724 13.3361V8.77881H46.5425V22.0469C46.543 22.2415 46.6205 22.4279 46.7581 22.5655C46.8957 22.7031 47.0821 22.7806 47.2767 22.7811C47.4692 22.7787 47.6528 22.7001 47.7874 22.5624C47.922 22.4248 47.9966 22.2394 47.9946 22.0469V0.735732C47.9946 0.545314 47.919 0.362695 47.7843 0.228049C47.6497 0.0934031 47.4671 0.0177599 47.2767 0.0177599ZM1.48083 7.3303V1.46268H46.5425V7.3303H1.48083Z" fill="white"/>
<path d="M42.9509 3.8806C42.2742 4.54114 43.2991 5.59117 43.974 4.91628C44.6489 4.24138 43.6437 3.24879 42.9509 3.8806Z" fill="white"/>
<path d="M39.4652 3.66309C38.5174 3.66309 38.4977 5.09903 39.4652 5.1098C40.4326 5.12057 40.4021 3.66488 39.4652 3.66309Z" fill="white"/>
<path d="M34.9437 3.8803C34.2993 4.57315 35.2793 5.546 35.9811 4.91598C36.6506 4.20878 35.6401 3.25746 34.9437 3.8803Z" fill="white"/>
<path d="M47.2766 27.8714C47.0832 27.8755 46.8989 27.9542 46.7621 28.091C46.6253 28.2277 46.5466 28.4121 46.5425 28.6055V31.7556C46.3621 31.6856 46.1854 31.6066 46.013 31.5187L41.8219 19.6721V13.3737C41.8219 12.4134 40.3859 12.4116 40.3859 13.3737V15.2925C35.8771 13.2876 33.007 13.2876 28.5071 15.2925V13.3737C28.5071 12.4081 27.0496 12.417 27.0496 13.3737V19.6721L22.8656 31.5187C22.6861 31.6048 22.5066 31.6982 22.3271 31.7556V28.6055C22.302 27.6434 20.8912 27.647 20.8715 28.6055V41.17C20.8715 42.1213 22.3254 42.1393 22.3271 41.17V38.0127H46.5587V41.1628C46.5587 42.1141 48.0126 42.1303 48.0162 41.1628V28.5983C48.0124 28.4045 47.9329 28.2199 47.7947 28.084C47.6564 27.9481 47.4705 27.8718 47.2766 27.8714ZM40.3733 16.8685V19.069H38.0525C36.4155 16.6872 32.4469 16.6782 30.8136 19.069H28.4945V16.8685C33.1883 14.6894 35.6688 14.6894 40.3733 16.8685ZM37.3399 21.3558C37.4045 22.553 36.0835 22.2838 34.8504 22.3484C33.9331 22.3268 32.1149 22.4507 31.7092 22.0253C31.6662 21.9804 31.5297 21.8458 31.5297 21.3558C31.6123 17.879 37.2574 17.8916 37.3345 21.3558H37.3399ZM28.2791 20.5355H30.1548C29.5428 23.9225 32.2746 23.8561 34.8486 23.7951C37.3615 23.9746 39.2659 23.2189 38.6987 20.5355H40.5744L44.2109 30.8061C37.6522 28.4332 31.1995 28.4332 24.6462 30.8061L28.2791 20.5355ZM22.3128 36.5463V33.3531C30.5695 29.4904 38.2876 29.4904 46.5443 33.3531V36.5463H22.3128Z" fill="white"/>
<path d="M16.0233 12.6396H6.57302C6.38483 12.649 6.20743 12.7303 6.07753 12.8668C5.94763 13.0032 5.87518 13.1845 5.87518 13.3729C5.87518 13.5613 5.94763 13.7425 6.07753 13.879C6.20743 14.0155 6.38483 14.0968 6.57302 14.1061H16.0233C16.9657 14.1061 16.971 12.6396 16.0233 12.6396Z" fill="white"/>
<path d="M22.5605 19.2003C22.5629 19.1045 22.5461 19.0092 22.5111 18.92C22.4761 18.8308 22.4236 18.7495 22.3567 18.681C22.2898 18.6124 22.2098 18.5579 22.1215 18.5207C22.0332 18.4835 21.9384 18.4643 21.8425 18.4644H10.9312C10.8357 18.4655 10.7414 18.4855 10.6536 18.5231C10.5659 18.5607 10.4864 18.6153 10.4197 18.6836C10.3531 18.7519 10.3005 18.8327 10.2651 18.9214C10.2296 19.01 10.212 19.1048 10.2132 19.2003C10.2154 19.3913 10.2913 19.5742 10.4251 19.7106C10.5589 19.8471 10.7402 19.9266 10.9312 19.9326H21.8389C22.0309 19.9284 22.2136 19.8496 22.3483 19.7128C22.483 19.5761 22.5592 19.3922 22.5605 19.2003Z" fill="white"/>
<path d="M0.0251465 19.2001C0.0251373 19.3955 0.102253 19.583 0.239725 19.7218C0.377198 19.8606 0.563913 19.9395 0.759273 19.9414H6.57305C6.76404 19.9354 6.94534 19.8559 7.07911 19.7194C7.21289 19.583 7.2888 19.4002 7.29102 19.2091C7.29221 19.1136 7.27458 19.0189 7.23914 18.9302C7.2037 18.8416 7.15114 18.7607 7.08447 18.6924C7.0178 18.6241 6.93832 18.5695 6.85057 18.5319C6.76282 18.4943 6.66852 18.4743 6.57305 18.4732H0.759273C0.663272 18.4725 0.568077 18.4907 0.479156 18.5269C0.390236 18.5631 0.309344 18.6165 0.241126 18.6841C0.172909 18.7516 0.118711 18.832 0.0816459 18.9205C0.0445812 19.0091 0.0253803 19.1041 0.0251465 19.2001Z" fill="white"/>
<path d="M19.6599 25.0014C19.6599 24.9056 19.6408 24.8107 19.6036 24.7224C19.5664 24.6341 19.5119 24.5542 19.4433 24.4873C19.3747 24.4204 19.2934 24.3678 19.2042 24.3328C19.115 24.2978 19.0197 24.281 18.924 24.2834H14.7956C14.6038 24.2834 14.4198 24.3596 14.2841 24.4953C14.1485 24.6309 14.0723 24.8149 14.0723 25.0068C14.0723 25.1986 14.1485 25.3826 14.2841 25.5183C14.4198 25.6539 14.6038 25.7301 14.7956 25.7301H18.924C19.0202 25.7309 19.1156 25.7125 19.2048 25.6763C19.2939 25.64 19.375 25.5864 19.4434 25.5187C19.5118 25.451 19.5661 25.3704 19.6032 25.2817C19.6404 25.1929 19.6596 25.0976 19.6599 25.0014Z" fill="white"/>
<path d="M0.759299 25.7372H10.4519C11.3817 25.7372 11.4104 24.3013 10.4519 24.2905H0.759299C-0.211758 24.2941 -0.192014 25.7372 0.759299 25.7372Z" fill="white"/>
<path d="M10.9311 30.0938C9.99599 30.0938 9.97445 31.5494 10.9311 31.5387H16.9926C17.9493 31.5494 17.935 30.1027 16.9926 30.0938H10.9311Z" fill="white"/>
<path d="M0.759243 31.5387H6.57302C7.52613 31.5494 7.51177 30.1027 6.57302 30.0938H0.759243C-0.19207 30.0938 -0.213609 31.5512 0.759243 31.5387Z" fill="white"/>
<path d="M2.93652 41.8971H14.8046C16.779 41.881 17.9332 40.1704 17.7178 38.2929C17.719 37.9099 17.6444 37.5305 17.4985 37.1764C17.3525 36.8223 17.138 36.5006 16.8673 36.2297C16.5965 35.9588 16.2749 35.7441 15.921 35.5979C15.567 35.4518 15.1876 35.377 14.8046 35.3779H2.93652C2.55369 35.3772 2.17449 35.4522 1.82071 35.5984C1.46693 35.7447 1.14554 35.9595 0.87501 36.2303C0.604475 36.5012 0.390127 36.8229 0.24428 37.1768C0.0984325 37.5308 0.0239613 37.9101 0.0251442 38.2929C-0.179478 40.1686 0.962098 41.881 2.93652 41.8971ZM1.48083 38.2929C1.48367 37.9087 1.6383 37.5412 1.91098 37.2705C2.18367 36.9999 2.55231 36.848 2.93652 36.848H14.8046C16.061 36.9126 16.3536 37.8998 16.2603 38.984C16.26 39.1746 16.2222 39.3634 16.1488 39.5394C16.0755 39.7154 15.9681 39.8752 15.8329 40.0096C15.6976 40.144 15.5372 40.2504 15.3607 40.3226C15.1843 40.3949 14.9953 40.4316 14.8046 40.4307H2.93652C1.68545 40.3589 1.3875 39.3842 1.48083 38.2929Z" fill="white"/>
</svg>
