<svg width="48" height="40" viewBox="0 0 48 40" fill="none" xmlns="http://www.w3.org/2000/svg">
<path d="M45.6976 6.43324L11.3183 0.300853C9.81174 0.0298855 8.34813 1.08395 8.08684 2.5824L5.87265 15.2846H2.70968C1.21548 15.2846 0 16.5005 0 17.9943V37.0317C0 38.5255 1.21548 39.7414 2.70968 39.7414H37.7756C39.2698 39.7414 40.4853 38.5255 40.4853 37.0317V30.3376C41.4898 30.5168 42.4595 30.7282 43.3881 30.1727C44.0849 29.7558 44.5847 29.037 44.7244 28.2361L47.9574 9.68795C48.2234 8.1624 47.2096 6.70227 45.6976 6.43324ZM9.61239 2.84834C9.72852 2.18292 10.3742 1.70485 11.0466 1.82485L45.4258 7.95724C46.1005 8.07763 46.5519 8.73453 46.4323 9.42163L45.8988 12.4836L9.07742 5.91608L9.61239 2.84834ZM38.9369 37.0317C38.9369 37.6719 38.4159 38.193 37.7756 38.193H2.70968C2.06942 38.193 1.54839 37.6719 1.54839 37.0317V17.9943C1.54839 17.354 2.06942 16.833 2.70968 16.833H37.7756C38.4159 16.833 38.9369 17.354 38.9369 17.9943V37.0317ZM43.1992 27.9701C42.9585 29.347 41.4294 28.9332 40.4853 28.7648V17.9943C40.4853 16.5005 39.2698 15.2846 37.7756 15.2846H7.44465L8.81149 7.44124L11.0543 7.84111L45.6325 14.0087L43.1992 27.9701Z" fill="white"/>
<path d="M18.2396 35.0977H13.788C13.3606 35.0977 13.0138 34.7509 13.0138 34.3235C13.0138 33.8962 13.3606 33.5493 13.788 33.5493H18.2396C18.667 33.5493 19.0138 33.8962 19.0138 34.3235C19.0138 34.7509 18.6673 35.0977 18.2396 35.0977Z" fill="white"/>
<path d="M9.78233 35.0977H5.33071C4.90336 35.0977 4.55652 34.7509 4.55652 34.3235C4.55652 33.8962 4.90336 33.5493 5.33071 33.5493H9.78233C10.2097 33.5493 10.5565 33.8962 10.5565 34.3235C10.5565 34.7509 10.2097 35.0977 9.78233 35.0977Z" fill="white"/>
<path d="M26.6969 35.0977H22.2453C21.818 35.0977 21.4711 34.7509 21.4711 34.3235C21.4711 33.8962 21.818 33.5493 22.2453 33.5493H26.6969C27.1243 33.5493 27.4711 33.8962 27.4711 34.3235C27.4711 34.7509 27.1247 35.0977 26.6969 35.0977Z" fill="white"/>
<path d="M35.1546 35.0977H30.703C30.2756 35.0977 29.9288 34.7509 29.9288 34.3235C29.9288 33.8962 30.2756 33.5493 30.703 33.5493H35.1546C35.5819 33.5493 35.9288 33.8962 35.9288 34.3235C35.9288 34.7509 35.5819 35.0977 35.1546 35.0977Z" fill="white"/>
<path d="M11.7825 31.0813H6.17499C5.10776 31.0813 4.2395 30.213 4.2395 29.1458V26.9223C4.2395 25.8551 5.10776 24.9868 6.17499 24.9868H11.7825C12.8497 24.9868 13.718 25.8551 13.718 26.9223V29.1458C13.718 30.2126 12.8493 31.0813 11.7825 31.0813ZM6.17499 26.5348C5.9617 26.5348 5.78789 26.7082 5.78789 26.9219V29.1454C5.78789 29.3591 5.9617 29.5325 6.17499 29.5325H11.7825C11.9958 29.5325 12.1696 29.3591 12.1696 29.1454V26.9219C12.1696 26.7082 11.9958 26.5348 11.7825 26.5348H6.17499Z" fill="white"/>
</svg>
