<svg width="48" height="48" viewBox="0 0 48 48" fill="none" xmlns="http://www.w3.org/2000/svg">
<path d="M9.75 46.5C9.336 46.5 9 46.164 9 45.75V44.5965C9 41.958 11.028 39.1005 13.5195 38.226L19.686 36.069L20.0925 32.814C20.1435 32.4 20.544 32.1015 20.9295 32.1615C21.3405 32.2125 21.633 32.5875 21.582 32.9985L21.117 36.7155C21.0825 36.9975 20.8905 37.2375 20.6205 37.3305L14.0145 39.642C12.1095 40.3095 10.5 42.5805 10.5 44.5965V45.75C10.5 46.164 10.164 46.5 9.75 46.5Z" fill="white"/>
<path d="M38.2499 46.5001C37.8359 46.5001 37.4999 46.1641 37.4999 45.7501V44.5967C37.4999 42.5792 35.8904 40.3096 33.9854 39.6406L27.3794 37.3291C27.1094 37.2346 26.9174 36.9961 26.8829 36.7156L26.4164 32.9956C26.3654 32.5846 26.6564 32.2096 27.0674 32.1571C27.4739 32.1016 27.8534 32.3941 27.9059 32.8081L28.3139 36.0691L34.4804 38.2261C36.9719 39.1006 38.9999 41.9597 38.9999 44.5967V45.7501C38.9999 46.1641 38.6639 46.5001 38.2499 46.5001Z" fill="white"/>
<path d="M24 34.5586C23.586 34.5586 23.25 34.2226 23.25 33.8086C23.25 33.3946 23.586 33.0586 24 33.0586C25.6725 33.0586 28.7865 33.0586 28.8015 24.8521C28.8045 23.4121 28.6995 22.0126 27.4005 20.7121C26.634 19.9456 25.491 19.5571 23.9985 19.5571C22.506 19.5571 21.363 19.9456 20.5965 20.7121C19.299 22.0126 19.1925 23.4121 19.1955 24.8521C19.203 28.7281 19.9095 31.2376 21.2955 32.3131C21.6225 32.5681 21.6825 33.0376 21.429 33.3661C21.1725 33.6931 20.7045 33.7501 20.376 33.4996C18.5805 32.1061 17.7045 29.2801 17.6955 24.8551C17.6925 23.2321 17.832 21.3586 19.536 19.6516C20.5935 18.5941 22.095 18.0571 23.9985 18.0571C25.902 18.0571 27.4035 18.5926 28.461 19.6516C30.165 21.3586 30.3045 23.2321 30.3015 24.8551C30.288 31.5661 28.3455 34.5586 24 34.5586Z" fill="white"/>
<path d="M23.9955 40.7278C23.8125 40.7278 23.6295 40.6618 23.4855 40.5283L19.863 37.1728C19.56 36.8908 19.5405 36.4153 19.8225 36.1123C20.106 35.8063 20.58 35.7928 20.883 36.0718L23.9955 38.9563L27.117 36.0718C27.4245 35.7898 27.8985 35.8093 28.1775 36.1123C28.4595 36.4168 28.44 36.8923 28.1355 37.1728L24.5055 40.5283C24.36 40.6618 24.1785 40.7278 23.9955 40.7278Z" fill="white"/>
<path d="M26.7195 25.3723C24.5865 25.3723 22.3665 24.6208 21.1425 23.5213C20.8335 23.2423 20.808 22.7698 21.0855 22.4623C21.363 22.1548 21.8415 22.1293 22.1445 22.4053C23.6235 23.7358 27.1665 24.4318 29.196 23.3398C29.559 23.1418 30.0165 23.2813 30.2115 23.6458C30.408 24.0103 30.27 24.4663 29.9055 24.6613C28.9815 25.1563 27.864 25.3723 26.7195 25.3723Z" fill="white"/>
<path d="M12.75 35.7C12.336 35.7 12 35.364 12 34.95V32.2335C12 31.9995 12.1095 31.7775 12.297 31.6365C13.062 31.0575 13.5 30.1875 13.5 29.25V27C13.5 25.3455 12.1545 24 10.5 24C8.8455 24 7.5 25.3455 7.5 27V29.25C7.5 30.1875 7.938 31.0575 8.703 31.6365C8.8905 31.779 9 31.9995 9 32.2335V34.95C9 35.364 8.664 35.7 8.25 35.7C7.836 35.7 7.5 35.364 7.5 34.95V32.5875C6.5415 31.731 6 30.534 6 29.25V27C6 24.519 8.019 22.5 10.5 22.5C12.981 22.5 15 24.519 15 27V29.25C15 30.5325 14.4585 31.7295 13.5 32.5875V34.95C13.5 35.364 13.164 35.7 12.75 35.7Z" fill="white"/>
<path d="M11.2545 33.6735C10.9065 33.6735 10.5945 33.429 10.521 33.075C10.4385 32.6685 10.6995 32.2725 11.106 32.1885C12.492 31.905 13.5 30.6675 13.5 29.25C13.5 28.836 13.836 28.5 14.25 28.5C14.664 28.5 15 28.836 15 29.25C15 31.3785 13.488 33.231 11.406 33.6585C11.355 33.669 11.3055 33.6735 11.2545 33.6735Z" fill="white"/>
<path d="M2.25 45.0002C1.836 45.0002 1.5 44.6642 1.5 44.2502V40.4552C1.5 38.3537 2.745 36.4622 4.671 35.6402L7.9515 34.2167C8.211 34.1087 8.5065 34.1477 8.727 34.3247L10.503 35.7827L12.279 34.3382C12.4965 34.1627 12.792 34.1207 13.0485 34.2317L16.3305 35.6402C16.7115 35.8022 16.887 36.2432 16.7235 36.6242C16.56 37.0052 16.116 37.1807 15.7395 37.0172L12.876 35.7887L10.977 37.3322C10.701 37.5572 10.3065 37.5557 10.0275 37.3307L8.1285 35.7752L5.265 37.0187C3.888 37.6052 3 38.9537 3 40.4552V44.2502C3 44.6642 2.664 45.0002 2.25 45.0002Z" fill="white"/>
<path d="M13.4085 28.365C11.9145 28.365 10.4865 27.8505 9.279 26.8785C8.9565 26.6175 8.9055 26.1465 9.165 25.824C9.4275 25.4985 9.9 25.452 10.2195 25.71C11.181 26.4855 12.3165 26.9265 13.497 26.865C13.425 25.2735 12.108 24 10.5 24C8.8455 24 7.5 25.3455 7.5 27V27.555C7.5 27.969 7.164 28.305 6.75 28.305C6.336 28.305 6 27.969 6 27.555V27C6 24.519 8.019 22.5 10.5 22.5C12.981 22.5 15 24.519 15 27V27.525C15 27.894 14.7315 28.2075 14.3685 28.266C14.022 28.32 13.722 28.365 13.4085 28.365Z" fill="white"/>
<path d="M39.75 35.7C39.336 35.7 39 35.364 39 34.95V32.2335C39 31.9995 39.1095 31.7775 39.297 31.6365C40.062 31.0575 40.5 30.1875 40.5 29.25V27C40.5 25.3455 39.1545 24 37.5 24C35.8455 24 34.5 25.3455 34.5 27V29.25C34.5 30.1875 34.938 31.0575 35.703 31.6365C35.8905 31.779 36 31.9995 36 32.2335V34.95C36 35.364 35.664 35.7 35.25 35.7C34.836 35.7 34.5 35.364 34.5 34.95V32.5875C33.5415 31.731 33 30.534 33 29.25V27C33 24.519 35.019 22.5 37.5 22.5C39.981 22.5 42 24.519 42 27V29.25C42 30.5325 41.4585 31.7295 40.5 32.5875V34.95C40.5 35.364 40.164 35.7 39.75 35.7Z" fill="white"/>
<path d="M38.2546 33.6735C37.9066 33.6735 37.5946 33.429 37.5211 33.075C37.4386 32.6685 37.6996 32.2725 38.1061 32.1885C39.4921 31.905 40.5001 30.6675 40.5001 29.25C40.5001 28.836 40.8361 28.5 41.2501 28.5C41.6641 28.5 42.0001 28.836 42.0001 29.25C42.0001 31.3785 40.4881 33.231 38.4061 33.6585C38.3551 33.669 38.3056 33.6735 38.2546 33.6735Z" fill="white"/>
<path d="M45.75 44.9999C45.336 44.9999 45 44.6639 45 44.2499V40.4549C45 38.9534 44.112 37.6064 42.7395 37.0199L39.8715 35.7749L37.9755 37.3304C37.6965 37.5554 37.302 37.5569 37.026 37.3319L35.127 35.7884L32.2635 37.0169C31.884 37.1819 31.4415 37.0049 31.2795 36.6239C31.116 36.2429 31.2915 35.8019 31.6725 35.6399L34.9545 34.2314C35.2125 34.1219 35.508 34.1624 35.724 34.3379L37.5 35.7824L39.276 34.3244C39.495 34.1474 39.792 34.1069 40.0515 34.2164L43.335 35.6414C45.255 36.4619 46.5 38.3519 46.5 40.4549V44.2499C46.5 44.6639 46.164 44.9999 45.75 44.9999Z" fill="white"/>
<path d="M36.1905 19.4927C35.8455 19.4927 35.5335 19.2527 35.4585 18.9002C33.996 12.1442 29.6745 6.34216 23.5995 2.98366C23.2379 2.78266 23.106 2.32666 23.307 1.96366C23.508 1.60066 23.9625 1.47316 24.327 1.67116C30.78 5.23966 35.3715 11.4032 36.924 18.5837C37.0125 18.9887 36.756 19.3877 36.3495 19.4747C36.2955 19.4867 36.2415 19.4927 36.1905 19.4927Z" fill="white"/>
<path d="M24 12.0002C18.573 12.0002 13.203 11.2382 8.03701 9.73516C7.63951 9.61966 7.41001 9.20266 7.52701 8.80516C7.64401 8.40766 8.05501 8.17516 8.45701 8.29366C18.4455 11.2007 29.34 11.2202 39.336 8.35366C39.7365 8.23516 40.1505 8.46916 40.263 8.86816C40.377 9.26716 40.1475 9.68116 39.7485 9.79516C34.6515 11.2592 29.352 12.0002 24 12.0002Z" fill="white"/>
<path d="M24 16.5C23.586 16.5 23.25 16.164 23.25 15.75V2.25C23.25 1.836 23.586 1.5 24 1.5C24.414 1.5 24.75 1.836 24.75 2.25V15.75C24.75 16.164 24.414 16.5 24 16.5Z" fill="white"/>
<path d="M2.5965 28.653C2.241 28.653 1.926 28.3995 1.86 28.0365C1.6215 26.7105 1.5 25.3515 1.5 24C1.5 11.5935 11.5935 1.5 24 1.5C36.4065 1.5 46.5 11.5935 46.5 24C46.5 25.3245 46.383 26.6565 46.1535 27.957C46.08 28.365 45.6825 28.644 45.285 28.5645C44.877 28.4925 44.6055 28.1025 44.6775 27.696C44.892 26.4795 45 25.236 45 24C45 12.42 35.58 3 24 3C12.42 3 3 12.42 3 24C3 25.2645 3.1125 26.532 3.3375 27.7695C3.411 28.176 3.1395 28.5675 2.733 28.641C2.6865 28.6485 2.643 28.653 2.5965 28.653Z" fill="white"/>
<path d="M11.5335 20.9999C11.496 20.9999 11.457 20.9969 11.4195 20.9909C11.01 20.9294 10.728 20.5469 10.791 20.1374C11.9685 12.3824 16.7865 5.47939 23.6775 1.66939C24.0405 1.46989 24.498 1.59889 24.6975 1.96189C24.8985 2.32489 24.7665 2.78089 24.405 2.98189C17.9175 6.56839 13.383 13.0649 12.2745 20.3624C12.219 20.7329 11.898 20.9999 11.5335 20.9999Z" fill="white"/>
<path d="M36.4666 20.9997C36.1036 20.9997 35.7826 20.7327 35.7271 20.3622C34.6201 13.0662 30.0856 6.56968 23.5996 2.98318C23.2381 2.78218 23.1061 2.32618 23.3071 1.96318C23.5081 1.60018 23.9626 1.47268 24.3271 1.67068C31.2181 5.48068 36.0346 12.3852 37.2106 20.1372C37.2736 20.5467 36.9916 20.9292 36.5821 20.9907C36.5416 20.9967 36.5041 20.9997 36.4666 20.9997Z" fill="white"/>
</svg>
