<svg width="48" height="48" viewBox="0 0 48 48" fill="none" xmlns="http://www.w3.org/2000/svg">
<path d="M30.9664 33.0573C30.751 32.3056 30.2559 31.6826 29.572 31.3033C28.7645 30.8552 27.8163 30.8119 26.9705 31.1843C26.6086 31.3436 26.4445 31.7661 26.6038 32.1279C26.7631 32.4898 27.1855 32.6539 27.5475 32.4944C27.9801 32.3039 28.4647 32.3261 28.8775 32.5551C29.227 32.7491 29.48 33.0673 29.59 33.4514C29.6999 33.8354 29.6538 34.2391 29.4598 34.5885C28.8176 35.7467 28.8005 38.0218 28.8007 38.2731C28.8006 38.2944 28.7779 40.4225 28.0105 42.4991C27.0455 45.1113 25.3814 46.4358 23.0649 46.4358H17.2952C16.067 46.4358 13.0297 45.994 11.3572 41.9019C11.2077 41.5361 10.7901 41.3604 10.4238 41.5101C10.0578 41.6596 9.88229 42.0775 10.032 42.4436C11.4201 45.8398 14.1353 47.8675 17.2953 47.8675H23.065C26.0128 47.8675 28.1919 46.1707 29.3664 42.9604C30.2114 40.6509 30.2319 38.3763 30.2323 38.2767C30.2319 37.4546 30.3615 35.9147 30.7118 35.2831C31.0914 34.5994 31.1816 33.8089 30.9664 33.0573Z" fill="white"/>
<path d="M25.3276 22.5134C24.8264 22.0123 24.1604 21.7363 23.452 21.7363C21.9904 21.7363 20.8004 22.9255 20.7994 24.3877V28.8911C20.4337 28.7007 20.0182 28.593 19.5781 28.593C18.6859 28.593 17.8951 29.0358 17.414 29.713C16.9518 29.3226 16.3549 29.0869 15.704 29.0869C14.3777 29.0869 13.2756 30.0652 13.0814 31.3381C12.7083 31.1377 12.2822 31.0239 11.8298 31.0239C10.3671 31.0239 9.177 32.2139 9.177 33.6767V38.1444C9.177 38.8583 9.24994 39.5881 9.39356 40.3135C9.46116 40.6543 9.76022 40.8903 10.0951 40.8903C10.1412 40.8902 10.188 40.8857 10.235 40.8763C10.6227 40.7995 10.8748 40.4229 10.798 40.0351C10.6724 39.4012 10.6088 38.765 10.6088 38.1443V33.6766C10.6088 33.0032 11.1566 32.4554 11.8299 32.4554C12.5033 32.4554 13.0511 33.0033 13.0511 33.6766V34.6882C13.0511 35.0835 13.3716 35.404 13.767 35.404C14.1624 35.404 14.4829 35.0835 14.4829 34.6882V33.6766V31.7396C14.4829 31.0663 15.0308 30.5185 15.7041 30.5185C16.3775 30.5185 16.9253 31.0663 16.9253 31.7396V33.8773C16.9253 34.2727 17.2457 34.5932 17.6411 34.5932C18.0366 34.5932 18.357 34.2727 18.357 33.8773V31.7396V31.2458C18.357 30.5724 18.9049 30.0246 19.5782 30.0246C20.2517 30.0246 20.7995 30.5725 20.7995 31.2458V34.508C20.7995 34.9033 21.1199 35.2239 21.5153 35.2239C21.9108 35.2239 22.2312 34.9033 22.2312 34.508V31.2458V24.3881C22.2317 23.7154 22.7795 23.1679 23.4522 23.1679C23.7782 23.1679 24.0848 23.295 24.3156 23.5256C24.5464 23.7565 24.6734 24.063 24.6734 24.3891V34.7804V38.2691C24.6734 38.6644 24.9938 38.9849 25.3893 38.9849C25.7847 38.9849 26.1052 38.6644 26.1052 38.2691V34.7804V24.3892C26.1048 23.6808 25.8288 23.0146 25.3276 22.5134Z" fill="white"/>
<path d="M24.0002 17.2812C20.8713 17.2812 18.3257 19.8268 18.3257 22.9558C18.3257 24.0238 18.6243 25.0648 19.1889 25.966C19.399 26.3008 19.8406 26.4023 20.1757 26.1924C20.5106 25.9824 20.6121 25.5407 20.4022 25.2057C19.9803 24.5325 19.7573 23.7546 19.7573 22.9558C19.7573 20.6163 21.6606 18.7129 24.0002 18.7129C26.3397 18.7129 28.243 20.6162 28.243 22.9558C28.2429 24.2052 27.6958 25.3853 26.742 26.1939C26.4404 26.4495 26.4032 26.9012 26.6588 27.2028C26.8004 27.3699 27.0022 27.4558 27.2052 27.4558C27.3688 27.4558 27.5332 27.4 27.6678 27.286C28.9432 26.2048 29.6747 24.6265 29.6747 22.9558C29.6746 19.8268 27.129 17.2812 24.0002 17.2812Z" fill="white"/>
<path d="M24 0.132324C20.8711 0.132324 18.3255 2.67792 18.3255 5.80682C18.3255 8.93582 20.8711 11.4814 24 11.4814C27.1289 11.4814 29.6745 8.93582 29.6745 5.80682C29.6745 2.67782 27.1289 0.132324 24 0.132324ZM24 10.0497C21.6605 10.0497 19.7572 8.14635 19.7572 5.80673C19.7572 3.4672 21.6604 1.56389 24 1.56389C26.3395 1.56389 28.2428 3.4672 28.2428 5.80673C28.2428 8.14626 26.3396 10.0497 24 10.0497Z" fill="white"/>
<path d="M5.67459 0.132324C2.54559 0.132324 0 2.67792 0 5.80682C0 8.93582 2.54559 11.4814 5.67459 11.4814C8.8035 11.4814 11.3491 8.93582 11.3491 5.80682C11.3491 2.67782 8.80341 0.132324 5.67459 0.132324ZM5.67459 10.0497C3.33506 10.0497 1.43166 8.14635 1.43166 5.80673C1.43166 3.4672 3.33497 1.56389 5.67459 1.56389C8.01422 1.56389 9.91744 3.4672 9.91744 5.80673C9.91734 8.14626 8.01412 10.0497 5.67459 10.0497Z" fill="white"/>
<path d="M42.3255 0.132324C39.1966 0.132324 36.651 2.67792 36.651 5.80682C36.651 8.93582 39.1966 11.4814 42.3255 11.4814C43.2189 11.4814 44.1094 11.2682 44.9005 10.8647C45.2527 10.6851 45.3926 10.2539 45.213 9.90182C45.0332 9.5496 44.6021 9.40973 44.2501 9.58935C43.6511 9.89489 43.0035 10.0498 42.3255 10.0498C39.986 10.0498 38.0827 8.14645 38.0827 5.80682C38.0827 3.46729 39.9859 1.56398 42.3255 1.56398C44.665 1.56398 46.5683 3.46729 46.5683 5.80682C46.5683 6.73561 46.274 7.61732 45.7171 8.35673C45.4792 8.67248 45.5423 9.12136 45.8582 9.3592C46.1741 9.59714 46.623 9.53385 46.8607 9.2181C47.6061 8.22848 48 7.04892 48 5.80682C48 2.67792 45.4544 0.132324 42.3255 0.132324Z" fill="white"/>
<path d="M37.3151 10.3596C37.0493 10.0669 36.5965 10.0451 36.304 10.3111L28.5115 17.3921C28.219 17.658 28.1973 18.1107 28.4632 18.4033C28.6044 18.5587 28.7984 18.6377 28.9931 18.6377C29.165 18.6377 29.3372 18.5762 29.4743 18.4517L37.2668 11.3707C37.5594 11.1048 37.581 10.6521 37.3151 10.3596Z" fill="white"/>
<path d="M18.8425 17.5129L11.2801 10.2191C10.9956 9.94473 10.5424 9.95288 10.2679 10.2374C9.99347 10.5219 10.0017 10.9751 10.2861 11.2496L17.8485 18.5435C17.9874 18.6774 18.1665 18.7441 18.3454 18.7441C18.5329 18.7441 18.7203 18.6708 18.8607 18.5253C19.1351 18.2406 19.127 17.7874 18.8425 17.5129Z" fill="white"/>
<path d="M24 12.3813C23.6046 12.3813 23.2841 12.7019 23.2841 13.0972V15.8014C23.2841 16.1968 23.6046 16.5173 24 16.5173C24.3954 16.5173 24.7159 16.1968 24.7159 15.8014V13.0972C24.7159 12.7019 24.3954 12.3813 24 12.3813Z" fill="white"/>
</svg>
