<svg width="38" height="48" viewBox="0 0 38 48" fill="none" xmlns="http://www.w3.org/2000/svg">
<path d="M37.2457 9.71868L19.2052 0.105768C18.9376 -0.0370723 18.6168 -0.0350677 18.3512 0.11078L0.809861 9.72369C0.522175 9.88156 0.34375 10.1833 0.34375 10.5116V23.0685C0.354275 33.3906 6.46985 42.7288 15.9274 46.8642L18.3622 47.9252C18.5897 48.0245 18.8489 48.025 19.0769 47.9262L21.8204 46.7414C31.4534 42.6958 37.7203 33.2673 37.7213 22.8194V10.5116C37.7213 10.1798 37.5384 9.87455 37.2457 9.71868ZM35.9251 22.8194C35.9231 32.5471 30.0866 41.3245 21.1173 45.089L21.1113 45.092L18.7221 46.1234L16.6461 45.2178C7.84262 41.3686 2.14955 32.6769 2.13953 23.0685V11.0433L18.7887 1.91859L35.9251 11.0498V22.8194Z" fill="white"/>
<path d="M12.1624 22.4862C11.8401 22.1088 11.2732 22.0642 10.8958 22.3865C10.5184 22.7083 10.4738 23.2756 10.7961 23.6525L15.5404 29.2082C15.8572 29.5791 16.412 29.6298 16.7899 29.322L27.8392 20.3326C28.2241 20.0198 28.2823 19.454 27.969 19.0691C27.6563 18.6847 27.0904 18.626 26.7055 18.9393L16.3368 27.3744L12.1624 22.4862Z" fill="white"/>
</svg>
