<?xml version="1.0" standalone="no"?>
<!DOCTYPE svg PUBLIC "-//W3C//DTD SVG 20010904//EN"
 "http://www.w3.org/TR/2001/REC-SVG-20010904/DTD/svg10.dtd">
<svg version="1.0" xmlns="http://www.w3.org/2000/svg"
 width="700.000000pt" height="700.000000pt" viewBox="0 0 700.000000 700.000000"
 preserveAspectRatio="xMidYMid meet">
<metadata>
Created by potrace 1.14, written by Peter Selinger 2001-2017
</metadata>
<g transform="translate(0.000000,700.000000) scale(0.100000,-0.100000)"
fill="#000000" stroke="none">
<path d="M474 6990 c-171 -35 -333 -158 -408 -312 -70 -144 -65 130 -63 -3198
2 -2773 4 -3019 19 -3060 17 -47 39 -96 64 -143 27 -49 130 -151 188 -186 31
-18 87 -45 124 -60 l67 -26 2999 -3 c2785 -2 3036 0 3111 21 100 29 195 88
265 164 60 65 94 122 129 212 l26 66 2 3010 c2 2112 -1 3025 -8 3060 -18 84
-82 205 -143 271 -69 76 -138 123 -236 160 l-75 29 -3010 1 c-1655 1 -3028 -2
-3051 -6z"/>
</g>
</svg>
